<?xml version="1.0" encoding="UTF-8"?>
<svg id="Layer_1" data-name="Layer 1" xmlns="http://www.w3.org/2000/svg" viewBox="0 0 290.42 370.27">
  <defs>
    <style>
      .cls-1 {
        fill: #fff;
      }
    </style>
  </defs>
  <path d="m124.69,245.67c-39.15,9.81-77.28,19.36-115.43,28.83-.69.17-1.66-.79-3.23-1.61,3.43-2.96,6.53-5.59,9.58-8.29,13.53-11.98,26.92-24.12,40.6-35.93,7.42-6.41,15.46-12.1,22.87-18.52,1.76-1.52,3.15-4.75,2.94-7.02-.56-6.05-1.85-12.08-3.39-17.98-.46-1.77-2.42-3.68-4.17-4.51-19.79-9.33-39.66-18.47-59.52-27.64-4.96-2.29-9.95-4.52-14.93-6.78,0-.54.01-1.08.02-1.62,1.77-.63,3.54-1.76,5.32-1.81,16.51-.42,33.03-.32,49.52-1.02,17.44-.74,34.86-2.13,52.28-3.44,1.33-.1,3.26-1.5,3.69-2.72,3.39-9.55,6.48-19.21,9.92-29.6-13.86-6.01-27.29-11.95-40.82-17.64-4.07-1.71-7.42-.14-9.98,3.47-2.87,4.05-5.2,9.08-9.1,11.65-5.79,3.8-12.58,6.46-19.3,8.39-6.07,1.75-10.63,3.84-14.55,9.52-3.39,4.91-6.27,9.14-6.39,15.24-.06,3.29-1.9,3.24-6.74-.31-.9,1.41-1.8,2.82-2.7,4.24-3.69-2.7-4.49-12.05-1.44-15.89,1.54-1.94,3.39-3.65,5.17-5.39,3.48-3.41,6.59-6.63,1.76-11.54-1.03-1.04-1.25-4.5-.34-5.57,9.09-10.79,15.77-24.08,29.13-30.61,10.56-5.16,21.59-6.17,32.69-.99,14.38,6.71,28.87,13.18,43.2,19.99,4.06,1.93,5.4.33,6.56-3.24,4.7-14.42,9.77-28.72,14.29-43.2,4.05-13,7.53-26.18,11.32-39.26.45-1.56,1.27-3.02,1.91-4.53.59-.11,1.19-.22,1.78-.34,1.18,2.53,2.95,4.96,3.43,7.62,2.34,13.03,4.04,26.18,6.52,39.18,2.87,15.03,6.31,29.94,9.61,45.38,6.69-.37,12.36-.75,18.05-.99,11.85-.5,22.13,3.63,31.58,10.51,1.36.99,3.93,1.58,5.37.98,16.46-6.83,32.82-13.93,49.19-20.97,1.23-.53,2.41-1.6,3.64-1.63,1.7-.04,4.15.12,4.95,1.19.92,1.23,1.18,4.03.38,5.32-7.89,12.7-16.2,25.13-24.1,37.82-5.26,8.46-10.49,16.99-14.83,25.93-1.58,3.25-1.22,7.91-.54,11.71,2.22,12.35-.06,24.21-4.51,35.41-2.61,6.56-7.88,12.06-12.52,18.86,5.14,2.43,10.11,4.78,15.08,7.12,1.04.49,2.1.95,3.15,1.44,13.45,6.29,14.84,11.47,7.32,24.23-1.22,2.08-.99,5.96.1,8.29,5.18,11.13,10.92,21.99,16.38,32.99,1.02,2.05,1.87,4.25,2.32,6.48.29,1.48.26,3.9-.61,4.5-1.02.7-3.35.37-4.64-.36-9.73-5.45-19.32-11.15-29.01-16.67-6.16-3.51-7.16-3.13-10.64,3.2-3.26,5.93-5.86,11.92-5.61,19.04.38,10.68,5.74,18.26,16,21.34,5.88,1.76,11.79,3.45,17.62,5.36,9.75,3.19,16.3,9.42,19.26,19.54,1.1,3.77,3.92,7.01,5.42,10.72.65,1.6-.05,3.75-.18,6.71-5.91-7.3-11.04-13.12-15.56-19.37-4.71-6.51-10.88-8.58-18.65-9.33-8.89-.86-17.76-2.99-26.31-5.63-2.94-.91-5.94-4.61-7.12-7.71-4.48-11.79-7.52-24.07-3.71-36.62,1.74-5.75,5.14-10.99,7.98-16.86-10.89-5.97-22.11-12.11-34.26-18.76-4.33,10.5-8.66,20.83-12.85,31.22-4.31,10.69-8.3,21.5-12.76,32.13-4.24,10.12-4.55,21.69-10.19,31.28-.69-.09-1.37-.18-2.06-.26-8.44-35.03-16.89-70.07-25.23-104.69Zm-40.53-60.67c1.93,11.93,3.38,23.68,5.97,35.18.75,3.31,4.37,7.7,7.43,8.43,7.69,1.84,15.9,3.04,23.74,2.42,22.2-1.76,44.36-4.24,66.46-7.09,12.63-1.63,25.24-2.54,37.25-8.75,19.37-10.02,26.01-35.61,20.81-53.88-4.57,6.41-7.47,13.06-9.14,20.78-2.67,12.37-7.55,23.95-20.55,29.48-12.29,5.23-25.26,7.79-38.42,9.08-20.04,1.96-40.15,3.16-60.19,5.13-5.84.57-10.62-.96-15.13-4.13-9.93-6.98-12.1-17.43-11.79-28.49.14-4.93-1.72-6.98-6.42-8.17Zm139.55-78.84c-8.3-6.28-16.96-10.18-26.81-9.86-15.51.51-31.01,2.45-46.51,2.45-10.62,0-21.83-.55-31.7-3.96-12.75-4.4-24.93-11.1-36.41-18.3-11.01-6.91-30.57-6.13-39.55,2.14-8.36,7.7-15.36,16.88-22.8,25.23,6.11,7.86,6.1,7.81,14.07,5.41,2.93-.88,6-1.34,8.91-2.3,7.92-2.61,16.03-4.26,20.22-13.4,3.25-7.1,9.34-12.13,18.22-9.33,5.99,1.89,11.75,4.5,17.59,6.84,9.54,3.82,18.77,8.89,28.65,11.29,19.6,4.76,39.27-1.08,58.93-1.84,9.36-.36,18.56-1.69,26.05,5.34,3.45,3.24,6.54,3.58,11.14.29Zm-55.92,84.86c3.53-.78,7.26-1.08,10.56-2.42,7.59-3.08,13.4-7.96,14.46-16.86.63-5.31-2.18-9.73-6.3-8.51-9.82,2.91-19.48,6.4-29.08,10.01-1.41.53-2.84,2.92-2.99,4.57-.76,8.75,3.56,12.77,13.35,13.22Zm84.88,146.28c.11-.47.21-.93.32-1.4-1.73-.47-3.46-.97-5.2-1.41-18.94-4.81-28.69-17.28-25.08-33.78,1.52-6.93,4.96-13.74,8.78-19.82,8.14-12.98,17.1-25.44,25.73-38.12,2.98-4.38,2.22-8.12-2.34-10.65-4.59-2.55-9.43-4.65-14.16-6.95-.35.51-.71,1.01-1.06,1.52,1.85,1.63,3.48,3.66,5.59,4.82,9.05,4.94,10.41,10.22,4.1,18.33-4.72,6.06-10.13,11.6-14.56,17.84-5.62,7.9-11.77,15.77-15.5,24.58-4.91,11.6-1.07,23.46,3.55,34.58,1.06,2.56,3.84,5.5,6.38,6.16,7.67,1.99,15.62,2.94,23.46,4.3Zm-104.7-157.27c-3.44,4.63-6.37,8.32-8.95,12.23-.67,1.01-.84,3.1-.24,4.07,2.6,4.14,5.95,6.84,11.49,6.61,15.01-.61,28.94-4.61,40.94-13.59,4.9-3.66,9.32-8.77,12.07-14.17,1.45-2.86-.78-7.92-2.15-11.7-.42-1.16-3.51-1.36-6.03-2.22,3.5,16.14-3.2,28.11-17.15,32.68-14.88,4.87-23.37,1.31-29.98-13.92Zm63.29-68.75c-9.05-10.07-20.02-5.67-30.63-5.46,1.57,6.09,2.94,11.41,4.45,17.22,8.96-4.03,17.41-7.83,26.18-11.77ZM13.76,127.24c.5.48,1,.96,1.5,1.44,3.11-3.82,6.22-7.64,9.34-11.45-.46-.38-.92-.75-1.38-1.13-3.15,3.72-6.3,7.43-9.45,11.15Zm81.25,69.88c1.86-1.74,3.11-2.92,4.84-4.54-1.89-.81-3.15-1.35-4.84-2.08v6.62Zm116.59-35.99h-5.92c.78,1.8,1.34,3.1,2.15,4.98,1.32-1.75,2.2-2.9,3.77-4.98Zm-78.07,40.6l-.26,1.7c1.35.22,2.71.43,4.06.65.09-.58.17-1.16.26-1.74l-4.06-.61Z"/>
  <path class="cls-1" d="m84.15,185c4.7,1.19,6.56,3.24,6.42,8.17-.31,11.06,1.86,21.51,11.79,28.49,4.52,3.17,9.29,4.7,15.13,4.13,20.04-1.97,40.15-3.17,60.19-5.13,13.16-1.29,26.13-3.85,38.42-9.08,13-5.53,17.88-17.11,20.55-29.48,1.67-7.72,4.57-14.38,9.14-20.78,5.21,18.27-1.44,43.86-20.81,53.88-12.01,6.21-24.62,7.12-37.25,8.75-22.09,2.85-44.25,5.33-66.46,7.09-7.84.62-16.05-.58-23.74-2.42-3.06-.73-6.68-5.12-7.43-8.43-2.6-11.49-4.04-23.24-5.97-35.18Z"/>
  <path class="cls-1" d="m223.7,106.17c-4.59,3.29-7.68,2.96-11.14-.29-7.48-7.03-16.69-5.7-26.05-5.34-19.66.76-39.33,6.59-58.93,1.84-9.88-2.4-19.11-7.46-28.65-11.29-5.84-2.34-11.61-4.96-17.59-6.84-8.88-2.8-14.97,2.23-18.22,9.33-4.19,9.13-12.3,10.79-20.22,13.4-2.91.96-5.97,1.42-8.91,2.3-7.98,2.41-7.96,2.45-14.07-5.41,7.44-8.35,14.44-17.53,22.8-25.23,8.98-8.27,28.54-9.05,39.55-2.14,11.49,7.2,23.67,13.9,36.41,18.3,9.87,3.41,21.08,3.96,31.7,3.96,15.5,0,30.99-1.94,46.51-2.45,9.85-.32,18.51,3.58,26.81,9.86Zm-157.93-28.97c-20.43,1.29-40.61,16.87-36.01,27.59,5.43-1.12,10.78-2.49,16.21-3.29,10.69-1.58,20.28-13.17,19.8-24.3Z"/>
  <path class="cls-1" d="m167.78,191.03c-9.79-.46-14.11-4.47-13.35-13.22.14-1.64,1.58-4.04,2.99-4.57,9.59-3.61,19.26-7.09,29.08-10.01,4.11-1.22,6.93,3.2,6.3,8.51-1.05,8.91-6.86,13.78-14.46,16.86-3.3,1.34-7.03,1.65-10.56,2.42Zm3.76-12.2c1.83-2.11,2.96-3.41,4.09-4.7-1.16-.99-2.55-2.96-3.42-2.75-1.46.35-3.02,1.89-3.68,3.32-.29.62,1.56,2.22,3.01,4.13Z"/>
  <path class="cls-1" d="m252.65,337.3c-7.84-1.36-15.78-2.31-23.46-4.3-2.54-.66-5.31-3.6-6.38-6.16-4.62-11.12-8.46-22.98-3.55-34.58,3.73-8.81,9.88-16.68,15.5-24.58,4.44-6.24,9.85-11.78,14.56-17.84,6.31-8.11,4.95-13.39-4.1-18.33-2.11-1.15-3.74-3.19-5.59-4.82.35-.51.71-1.01,1.06-1.52,4.73,2.3,9.57,4.4,14.16,6.95,4.56,2.53,5.31,6.27,2.34,10.65-8.63,12.67-17.58,25.14-25.73,38.12-3.82,6.08-7.26,12.88-8.78,19.82-3.61,16.5,6.14,28.96,25.08,33.78,1.74.44,3.47.94,5.2,1.41-.11.47-.21.93-.32,1.4Z"/>
  <path class="cls-1" d="m147.96,180.04c6.61,15.22,15.1,18.78,29.98,13.92,13.95-4.57,20.65-16.54,17.15-32.68,2.52.86,5.61,1.06,6.03,2.22,1.37,3.77,3.6,8.83,2.15,11.7-2.75,5.41-7.17,10.51-12.07,14.17-12,8.97-25.93,12.97-40.94,13.59-5.53.23-8.89-2.47-11.49-6.61-.6-.97-.43-3.06.24-4.07,2.58-3.91,5.51-7.6,8.95-12.23Z"/>
  <path class="cls-1" d="m13.76,127.24c3.15-3.72,6.3-7.43,9.45-11.15.46.38.92.75,1.38,1.13-3.11,3.82-6.22,7.64-9.34,11.45-.5-.48-1-.96-1.5-1.44Z"/>
  <path class="cls-1" d="m211.59,161.12c-1.57,2.07-2.44,3.23-3.77,4.98-.81-1.88-1.37-3.17-2.15-4.98h5.92Z"/>
  <path class="cls-1" d="m133.53,201.72l4.06.61c-.09.58-.17,1.16-.26,1.74-1.35-.22-2.71-.43-4.06-.65l.26-1.7Z"/>
  <path d="m65.77,77.19c.48,11.13-9.1,22.72-19.8,24.3-5.44.81-10.79,2.17-16.21,3.29-4.6-10.72,15.58-26.3,36.01-27.59Zm-17.23,18.66c-2.41-.33-4.83-.92-7.23-.89-1.57.02-3.12.94-4.69,1.45.25.83.5,1.66.76,2.49,3.69-1.06,7.37-2.11,11.06-3.17,1.17-.76,2.34-1.52,3.51-2.28,2.67-3.05,5.34-6.1,8.01-9.16-.58-.43-1.16-.87-1.74-1.3-6.18.9-4.69,6.68-6.18,10.57-1.17.76-2.34,1.53-3.51,2.29Zm-5.55-6.5c-.11.39-.22.78-.33,1.17,1.57,0,3.45.53,4.63-.15,1.22-.71,1.76-2.59,2.6-3.97l-.82-.53c-2.03,1.16-4.06,2.31-6.09,3.47Z"/>
  <path d="m171.54,178.83c-1.46-1.92-3.3-3.52-3.01-4.13.66-1.43,2.21-2.97,3.68-3.32.87-.21,2.26,1.76,3.42,2.75-1.13,1.3-2.26,2.6-4.09,4.7Z"/>
  <path class="cls-1" d="m52.04,93.56c1.48-3.89,0-9.67,6.18-10.57.58.43,1.16.87,1.74,1.3-2.67,3.05-5.34,6.1-8.01,9.16l.1.11Z"/>
  <path class="cls-1" d="m48.43,95.73c-3.69,1.06-7.37,2.11-11.06,3.17-.25-.83-.5-1.66-.76-2.49,1.56-.52,3.12-1.43,4.69-1.45,2.41-.03,4.82.56,7.23.89,0,0-.11-.12-.11-.12Z"/>
  <path class="cls-1" d="m42.99,89.35c2.03-1.16,4.06-2.31,6.09-3.47l.82.53c-.84,1.37-1.38,3.26-2.6,3.97-1.18.68-3.06.15-4.63.15.11-.39.22-.78.33-1.17Z"/>
  <path class="cls-1" d="m51.95,93.45c-1.17.76-2.34,1.52-3.51,2.28,0,0,.11.12.1.12,1.17-.76,2.34-1.53,3.51-2.29,0,0-.1-.11-.1-.11Z"/>
</svg>