<?xml version="1.0" encoding="UTF-8"?>
<svg id="Layer_1" data-name="Layer 1" xmlns="http://www.w3.org/2000/svg" viewBox="0 0 296.21 413.56">
  <defs>
    <style>
      .cls-1 {
        fill: #fff;
      }
    </style>
  </defs>
  <path d="m296.21,80.34c-6.39,7.86-12.76,15.73-19.18,23.56-6.36,7.76-12.77,15.47-18.95,22.96,3.43,6.84,5.82,13.96,13.12,13.77-.17,6.77.87,13-.75,18.43-2.03,6.81-.97,12.08,5.28,17.88-10.87.71-11.4,7.94-13.13,14.43-1.19,4.46-2.51,8.92-4.28,13.17-2.16,5.17-1.61,9.31,3.24,12.53,7.8-1.97,8.75-1.29,6.44,6.57-2.06,6.98-.96,15.12-7.7,20.64-1.33,1.09-.17,5.04-.45,7.64-.25,2.27-.92,4.5-1.41,6.75-.74.06-1.49.12-2.23.19,5.98,8.54,12.23,16.9,17.85,25.67,5.4,8.42,13.21,15.19,18.47,23.69l-1.68,1.31c-16.56-8.83-33.12-17.66-49.2-26.23-1.2.59-1.66.68-1.93.96-2.03,2.1-4.03,4.24-6.04,6.36-1.65-2.46-3.14-5.04-4.98-7.34-2.72-3.4-5.59-6.69-8.62-9.8-.68-.7-2.37-.85-3.47-.62-6.42,1.34-12.7,12.46-10.75,18.8.6,1.95,1.17,3.91,2.05,6.86-7.75-1.34-8.94,3.46-10.45,8.74-.78,2.72-3.21,6.19-5.64,6.95-4.91,1.54-5.27,4.93-5.3,8.68-.05,5.24.38,10.49.55,15.73.26,8.54,2.87,11.18,11.28,11.45,1.55.05,3.08.4,4.73.62-2.93,9.23-2.83,9.08,5.21,14.6,3.97,2.73,8.32,5.46,9.29,10.09-4.91,2.55-9.11,4.74-13.8,7.17-.12-11.2-10.24-15.61-15.81-23.4-.63.15-1.25.29-1.88.44v53.98l-.99-.2c-8.02-17.54-16.04-35.08-24.12-52.75-2.4.91-4.23,1.6-4.89,1.86-5.3-3.85-9.79-7.11-14.36-10.43-2.24.6-4.68,1.25-7.61,2.03,0-3.14.38-5.49-.09-7.66-.61-2.81-1.34-5.89-3.01-8.11-4.24-5.62-4.1-7.36,2.99-14.52-.79-1.77-1.62-3.61-2.72-6.07h7.86c-1.16-3.58-2.15-6.66-3.3-10.21-1.1.39-1.98.66-2.81,1.01-4.8,2.05-7.22.51-6.94-4.79.16-3.12,1.17-6.19,1.4-9.32.16-2.18-.34-4.42-.57-6.94-7.73,2.7-3.73,6.86-1.93,11.1-5.66,1.24-10.57,3.95-16.24-.17-3.71-2.7-7.9-2.48-10.58,2.45-.59,1.08-2.1,1.66-3.19,2.48-.74-1.31-1.42-2.67-2.23-3.93-1.25-1.95-2.26-4.95-3.98-5.46-1.77-.52-4.97.8-6.3,2.37-3.85,4.55-7.55,9.37-10.41,14.58-3.36,6.13-5.34,6.86-11.22,1.8-9.88,7.84-19.79,15.82-29.87,23.57-1.58,1.21-3.96,1.38-5.96,2.03-.46-.67-.92-1.33-1.38-2,10.47-17.58,20.94-35.17,31.83-53.45-2-.81-4.34-1.49-6.38-2.67-2.09-1.21-4.58-2.53-5.67-4.48-2.76-4.94-4.7-10.39-12.54-9.73,1.19-2.38,1.52-3.97,2.5-4.82,6.27-5.48,5.64-12.08,3.54-19.07-.97-3.22-2.39-6.55-2.26-9.77.12-2.91,2.16-5.72,3.17-8.63.69-2,2.04-4.49,1.41-6.1-2.02-5.14.82-6.35,4.31-4.88,11.87,5.01,20.21-2.46,30.59-7.35C48.84,187.65,24.44,170.59.03,153.54c-.01-.64-.02-1.27-.03-1.91,3.62,0,7.29-.36,10.86.06,18.1,2.12,36.15,4.71,54.27,6.62,14.45,1.53,28.99,2.33,44.84,3.56-1.99-7-3.12-13.15-5.52-18.75-2.11-4.93-1.8-9.05.53-13.58,3.55-6.91,6.85-13.95,10.51-21.44,1.16.79,2.79,1.89,4.93,3.34,2.71-3.1,5.61-6.32,8.41-9.63,2.69-3.17,5.75-4.94,9.88-2.87,4.26,2.13,6.29.46,7.94-3.68,3.73-9.35,7.95-18.5,11.84-27.79.57-1.35.4-3.01.69-5.66-3.55,2.41-6.01,4.09-8.19,5.58-1.24-6.89-2.42-13.22-3.48-19.57-.16-.98-.13-2.51.47-3.04,7.96-6.92,12.83-18.17,25.29-18.83,5.15-.27,8.58-1.84,10.42-7.08,2.26-6.43,5.25-12.6,7.92-18.88.72.06,1.45.12,2.17.18-.42,7.43-.85,14.86-1.3,22.72,7.08-.62,13.23-1.16,20.18-1.78.67-1.06,1.86-2.95,2.97-4.71.72,0,1.41-.13,1.47.02,3.48,7.67,7.57,15.16,9.96,23.16.78,2.62-2.69,6.7-4.61,9.87-1.51,2.49-3.59,4.66-5.5,6.89-7.16,8.33-6.98,10.34,1.89,18.48,1.99-1.67,4.01-3.36,6.03-5.06.52.13,1.04.26,1.55.39-1.62,13.74-3.25,27.47-4.98,42.12,24.73-11.51,48.97-22.8,73.21-34.08.52.71,1.03,1.42,1.55,2.13Zm-101.38,220.78c-3.03,2.9-10.11,2.83-7.58,10.32,6.24-1.13,7.34-5.42,7.4-10.47.06.05.12.1.18.14Zm-9.87-169.77c1.37-38.03,2.74-75.85,4.1-113.67-.54-.1-1.08-.19-1.61-.29-6.79,13.37-13.57,26.75-20.37,40.14,6.45,8.55,9.05,21.56,5.06,26.8-3.02-5.63-6-11.16-9.44-17.57-1.44,2.46-2.29,3.64-2.86,4.94-11.57,26.04-23.15,52.08-34.62,78.17-1.41,3.21-5.83,6.61-.16,10.2.49.31-.21,2.68-.56,4.04-.42,1.7-1.05,3.36-1.97,6.23,14.36-5.4,27.77-8.73,42.88-2.18-8.1,0-14.95-.73-21.56.2-6.86.97-13.5,3.55-20.26,5.43.88,4.65,1.16,7.85,2.2,10.77.47,1.31,2.42,2.83,3.8,2.94,6.68.54,13.39.56,20.09.9,16.9.86,31.84,6.81,44.88,17.53,4.29,3.52,10.43,3.94,14.9.95,1.11-.74,2.34-1.55,3.6-1.72,1.3-.18,2.7.39,4.06.63-.6-1.57-1.15-3.17-1.8-4.72-2.56-6.11-8.26-11.65-3.19-19.09,4.14-6.07,7.73-12.56,12.28-18.29,18.41-23.16,37.11-46.1,55.68-69.13,1.97-2.45,3.84-4.97,6.5-8.43-2.04.56-2.66.64-3.19.89-25.69,11.88-51.41,23.71-76.99,35.82-1.53.73-3.24,4.23-2.72,5.62,2.86,7.56,6.39,14.86,9.71,22.24.82,1.82,1.74,3.59,2.61,5.38-.62.58-1.24,1.15-1.86,1.73-6.52-4.34-13.05-8.68-20.32-13.52-3.99,1.98-4.7,1.54-4.44-4.65.12-2.87.38-5.72.59-8.82-1.73.18-3.15.32-5.04.52Zm-72.79,45.03c.49-7.44-2.05-11.13-9.53-10.84-4.35.17-8.76-.69-13.13-1.19-24.18-2.78-48.36-5.61-72.55-8.36-1.51-.17-3.07.15-4.6.24-.23.54-.46,1.08-.68,1.61,29.3,20.38,58.6,40.77,87.95,61.19-.34-1.33-.75-2.93-1.01-3.96,3.94,1.83,7.83,3.64,11.78,5.48-.85.72-1.73,1.47-3.49,2.96,3.48,1.84,8.6,3.09,8.82,4.93.74,6.15,4.5,4.3,7.2,4.22.03,7.72,8.91,5.13,11.52,10.47-11.27-1.99-20.36-6.8-26.73-15.62-4.6-6.38-11.15-8.07-14.32-2.48-8.15,14.39-16.17,28.84-24.01,43.4-.67,1.24-.18,4.37.83,5.04,4.44,2.96,9.25,5.03,14.48,1.3,1.2-.86,2.71-1.28,3.58-1.67.84,3.31,1.51,5.96,2.18,8.62,2.89-1.26,6.05-2.13,8.62-3.87,7.07-4.77,13.89-9.9,20.85-14.91,1.52,2.21,2.65,3.84,3.41,4.94,10.62-1.45,11.47-10.22,14.03-17.92,2.15.97,3.71,1.68,5.67,2.56,3.15-5.19,6.15-10.13,9.5-15.64-2.49-.65-4.25-1.2-6.04-1.56-11.53-2.36-22.18-6.66-30.63-15.09-4.58-4.58-9.04-9.44-12.64-14.78-3.05-4.52-6.5-6.06-11.8-6.1-8.88-.08-13.05-2.97-15.43-9.17,8.77,5.85,16.32,7.19,22.21,3.92-9.01-5.44-10.12-7.09-9.48-16.33,3.32,10.8,10.47,13.4,18.55,14.69-3.07-5.52-5.84-10.5-8.6-15.48.35-.13.71-.27,1.06-.4,4.25,4.61,8.5,9.21,12.76,13.82.56-.53,1.13-1.05,1.69-1.58-2.79-3.27-5.58-6.53-8.88-10.41,3.13-.91,4.89-1.42,6.87-2Zm122.89,54.84c-6.1,3.67-11.6,4.37-17.51,1.65-1.52-.7-3.69-.11-5.55.06-13.03,1.21-26.07,2.32-39.07,3.84-2.68.31-5.17,2.2-9.12,3.97,3.74,1.96,5.36,2.82,8.16,4.29-2.3,2.21-4,4.08-5.93,5.67-4.46,3.67-9.05,7.19-13.55,10.81-3.31,2.66-6.43,5.58-9.89,8.02-2.72,1.92-6.05,3-8.74,4.96-3.86,2.81-5.67,6.41-3.38,11.4,2.7,5.9,4.93,12.02,7.43,18.01,5.6,13.42,11.25,26.82,16.96,40.43,9.22-4.27,19.12-4.11,21.86-15.05,3.84,3.94-.37,11.07,6.61,11.95v-89.27c7.47,2.98,14.2,5.7,20.95,8.34,1.73.68,3.74,1.89,5.3,1.52,6.41-1.51,12.71-3.54,19.22-5.43-.33-1.62-.72-3.51-1.13-5.53,5.48-1.8,12.3,2.14,15.73-5.18-2.6-4.51-5.31-9.19-8.35-14.46Zm-72.01,16.12c-4.49-2.44-4.62-4.79-1.63-7.78,2.21-2.21,3.89-4.94,5.92-7.35,6.98-8.3,18.41-9.77,27.2-3.25,1.37-6.06,6.14-6.16,10.86-6.08,6.28.1,11.42-2.12,15.67-6.74,5.14-5.6,10.42-11.06,15.42-16.35-3.55-9.66-7.32-19.96-11.1-30.25-.68.13-1.37.25-2.05.38.94,4.81,1.9,9.61,2.81,14.43,1.28,6.71,1.83,13.71-1.44,19.71-2.6,4.78-7.14,8.5-11.55,13.53-1.06-2.24-1.67-3.52-2.79-5.87-2.61,7.46-7.09,7.64-12.29,7.42-11.47-.48-23.24-1.83-32.7,7.31-.9.87-3.36,1.06-4.57.48-3.11-1.51-6.62-11.62-5.53-16.13-7.69-2.68-15.5-5.24-23.18-8.14-4.3-1.62-7.24-4.51-8.22-9.48-2.76-13.96-3.97-28.67-9.41-41.55-5.7-13.48-1.08-21.74,7.64-30.25.9-.88,1.64-1.92,2.55-2.78,4.36-4.12,6.91-10.88,14.85-9.91.79.1,1.87-2.23,3.09-3.78-5.23-3.36-9.23-3.22-12.73,1.24-1.95,2.48-3.55,5.36-5.92,7.33-1.81,1.51-4.57,1.89-7.41,2.96-1.94,3.52-4.36,8.04-6.9,12.49-2.57,4.5-3.86,8.77-1.97,14.24,3.27,9.47,5.85,19.23,8.02,29.02.7,3.16-.8,6.81-1.22,9.7,1.56,3.85,3.25,7.81,4.77,11.84,2.11,5.58,2.9,11.95,11.05,12.73,1.82.17,3.3,3.89,5.22,6.34,3-2.92,6.61-.91,10.16,2.11,1.44,1.22,3.09,2.18,4.59,3.33,5.68,4.34,7.7,18.63,3.68,24.34-3,4.27-5.42,8.97-8.59,13.09-1.22,1.58-3.82,2.1-5.79,3.11-4.51,7.38-4.67,7.15-12.78,12.86-3.5,2.46-6.55,5.82-9.16,9.26-6.64,8.77-10.23,10.09-20.82,6.62-2.39-.78-4.93-1.34-7.1-2.54-2.39-1.32-4.44-3.27-5.74-4.26-4.65-.87-8.78-1.37-12.74-2.47-3.21-.89-6.2-2.57-9.34-3.74-8.77-3.28-8.78-3.25-6.88-11.17-2.25-.12-4.49-.24-6.6-.36-3.72-12.91-3.67-15.03.29-19.83-7.47-6.12-7.09-12.36,1.21-16.58,10.24-5.22,20.59-10.23,30.9-15.33-.05-.66-.11-1.32-.16-1.98-2.35,0-4.94-.65-7,.11-9.54,3.53-17.65,11.73-29.59,8.33,1.7,3.99,1.89,6.82-2.64,8.92-1.67.77-2.9,4.79-2.59,7.1,1.29,9.7,5.76,19.44-1.44,27.56,2.19,2.41,3.84,4.27,5.54,6.08,3.19,3.39,5.81,8.25,9.74,9.82,11.42,4.57,23.41,7.66,35.07,11.67,3.21,1.1,6.01,3.38,9.45,5.38,6.26-5.53,12.95,3.03,20.03,1.91-.14-1.96-1.05-4.3-.25-5.35,5.24-6.97,9.52-16.31,16.62-19.83,11.59-5.75,17.65-17.02,29.46-23.6Zm-101.66,12.49c-1.77,3.83-2.88,6.23-3.95,8.54,3.97,2.91,6.23,2.75,8.65-1.72,8.08-14.92,16.73-29.53,25-44.35.74-1.33.98-4.31.24-4.84-2.17-1.57-5.67-3.88-7.39-3.11-11.64,5.23-23.06,11.01-34.34,17-3.8,2.02-3.4,5.82.15,8.37,1.75,1.26,3.31,2.79,5.05,4.28-6.73,5.72-6.9,6.61-3.4,16.28,2.88-.13,5.84-.27,9.98-.46ZM202.06,121.24c9.09-4.44,9.36-6.54,2.8-26.75,2.61-.42,5.1-.82,8.58-1.38-.83-2.82-1.23-5.47-2.37-7.75-2.71-5.43-5.92-10.61-8.63-16.04-.95-1.9-1.67-4.32-1.38-6.34.84-5.91,2.17-11.75,3.48-17.58.33-1.47,1.31-2.8,1.98-4.19,1.29.83,2.61,1.6,3.84,2.5.81.59,1.48,1.37,2.22,2.07q3.68-4.33,1.2-8.12c-4.27-6.52-8.8-7.2-18.42-2.18-1.57.82-3,3.19-3.26,5.01-1.21,8.64-.3,16.96,3.59,25.07,1.82,3.8,4.11,9.29-3.82,10.28-.69.09-1.69,1.39-1.75,2.18-.71,10.09-1.27,20.2-1.94,31.45,4.53-1.46,7.54-2.43,10.55-3.4,4.33,4.51-6.24,11.88,3.32,15.16Zm50.21,21.42c-7.96.98-21.98,14.29-23.13,21.75-1.39,8.99,9.01,31.24,17.48,35.49,3.16-8.92,5.89-17.86,9.49-26.44,4.62-11,2.47-20.86-3.83-30.8Zm-15.35,126.97c2.99-11.76,11.41-19.23,18.72-17.89.36-2.77-.32-6.69,1.25-8.1,6.98-6.25,4.96-15.18,8.28-22.41-2.49-.12-5.57.52-6.17-.42-2.93-4.61-6.93-8.89-4.66-15.44,2.53-7.32,3.92-15.02,6.4-22.37,1.2-3.57,3.73-6.69,5.31-9.4-.29-3.11-.81-6.26-.8-9.42,0-3.07.68-6.13.8-9.2.15-3.86.04-7.73.04-9.84-3.28-3.92-5.72-7.44-8.81-10.26-1.24-1.14-3.89-.74-7.05-1.21,9.49,12.31,15.49,23.22,10.27,37.37-4.34,11.77-7.94,23.81-12,35.69-.55,1.59-1.86,2.93-2.5,3.91,4.51,7.65,12.86,14.26,8.5,23.68-4.12,8.88-6.51,21.01-21.2,20.13,3.45,5.64.62,6.7-4.12,7.28-5.53.67-11.31,1.31-16.33,3.48-4.58,1.98-8.29,5.98-12.44,9.13-1.64,6.76-3.49,14.35-5.52,22.66,3.33-1.33,5.59-2.23,8.82-3.52-6.48-6.42-1.5-11.17,1.89-16.55,4.47-7.07,11.85-7.93,18.8-10.16,4.66-1.49,8.85-2.83,12.52,2.85Zm-205.53,59.82c.52.44,1.05.88,1.57,1.32,16.11-12.49,32.23-24.99,49.1-38.07-2.89-1.47-4.68-2.46-6.53-3.3q-14.32-6.51-23.75,5.94c-.13.17-.31.3-.41.48-6.67,11.21-13.33,22.42-19.99,33.64Zm208.31-54.8c-5.83-.96-8.89-11.63-16.18-3.45,18.35,9.06,36.48,18.02,54.61,26.98.17-.33.34-.66.52-.98-9.25-13.84-18.51-27.69-27.8-41.59-7.4,3.61-10.43,10.59-11.16,19.05Zm-28.78,97.96c-2.8-7.14-16.63-7.25-12.23-18.89-10.07-1.54-16.84-7.88-23.18-15.07-5.51,6.03-14.09,6.53-22.01,8.4-1.61.38-4.28-.89-5.52-2.26-3.63-3.97-6.78-8.38-10.07-12.56,6.28-6.03,6.28-7.11,1.27-9.44-1.95,2.32-4.11,4.19-5.32,6.56-.91,1.77-1.47,5.56-.67,6.07,4.9,3.15,5.23,7.61,4.27,13.15,2.25-.74,3.9-1.28,3.93-1.29,5.91,3.77,10.66,6.8,16.19,10.34,1.26-1.54,2.49-3.22,3.91-4.72,3.86-4.11,18.57-6.21,22.44-2.48,7.92,7.65,15.24,15.92,22.97,24.11.86-.41,2.45-1.17,4.03-1.93Zm-2.32-323.52c-1.26,4.28-2.85,9.06-3.99,13.95-.33,1.41.38,3.27,1.09,4.68,2.75,5.39,5.72,10.67,8.55,16.02,3.78,7.13,2.34,13.71-3.06,15.99.71,5.36,1.4,10.6,2.35,17.72,7.98-13.06,6.59-26.63,8.77-39.67-1.86.56-3.57,1.71-4.84,1.34-6-1.77-10.31-15.14-6.53-20.17,3.27-4.36,7.23-8.23,10.19-12.77,1.54-2.37,2.7-6.04,2.01-8.57-1.11-4.08-3.89-7.7-5.28-10.27-2.93-.18-4.79-.41-6.64-.39-5.94.04-11.88.07-17.8.43-.52.03-.9,2.46-1.59,4.5,3.56-1.09,5.94-1.92,8.36-2.53,9.92-2.48,13.3-.99,17.76,7.87,2.48,4.93-.43,8.63-3.53,11.7-1.04,1.03-3.95.16-5.82.16Zm-26.85,349.37c.71-.11,1.41-.23,2.12-.34,0-12.69-.15-25.38.07-38.06.1-5.52-2.29-7.33-7.55-7.43-13.55-.28-15.37,2.41-9.51,14.42,5.08,10.41,9.92,20.94,14.87,31.42Zm-65.42-203.48c-5.73,3.52-7.33,10.64-3.45,16.11,9.51,13.41,23.33,18.68,39.31,20.29-1.61-11.66-8.06-16.24-18.49-13.94-1.41.31-2.97-.07-4.46-.13.13-1.37.14-2.77.43-4.11.2-.94.79-1.8,1.65-3.65-8.66-1.25-13.89-5.98-14.99-14.56Zm70.14,61.38v46.51c2.6-2.29,5.04-3.45,5.03-4.58-.11-9.56,8.89-18.51,1.26-28.64,4.8-.75,8.93-1.39,13.06-2.04.09-.7.19-1.4.28-2.1-6.1-2.84-12.19-5.68-19.63-9.14Zm49.82-50.64c-9.16,6.2-9.33,7.19-3.82,15.22,1.65,2.41,3.06,4.98,4.61,7.45,2.81,4.49,5.65,8.97,8.99,14.26,4.04-6.81,8.27-12.17,3.08-19.14-4.29-5.76-8.42-11.64-12.86-17.79Zm-97.51-92.36c-.67-.43-1.34-.85-2-1.28-9.3,5.5-16.46,13.68-20.55,23.26-2,4.69,1.33,11.65,2.25,17.58.79.08,1.58.15,2.37.23,5.98-13.27,11.96-26.53,17.94-39.8Zm42.37,88c-3.11,2.34-6.81,6.04-7.53,5.53-7.38-5.22-8.49-.86-8.51,3.8-3.01,2.01-5.1,3.41-7.19,4.8,2.4,1.52,4.75,3.12,7.23,4.5.59.33,1.8.14,2.4-.28,5.06-3.53,10.3-6.85,14.95-10.87,3.51-3.02,3.07-6.14-1.35-7.48Zm-26.95-141.38c8.8-6.19,9.1,6.03,14.81,7.74-3.02-4.86-6.15-9.55-9.91-13.66-3.97-4.35-3.35-8.02.96-11.09,3.71-2.64,8.03-4.42,11.88-6.9,2.17-1.39,3.93-3.42,5.88-5.16l-1.4-2.36c-3.9,1.48-8.18,2.37-11.59,4.6-3.96,2.58-7.46,6.07-10.54,9.69-1.59,1.87-2.57,4.92-2.49,7.39.1,3.23,1.52,6.42,2.4,9.75Zm51.42,89.93c.4-.3.79-.61,1.19-.91-4.53-12.1-9.07-24.19-13.67-36.48-5.39.73-6.18,2.18-2.24,7.45,3.43,4.6,4.64,9.24,2.57,14.69-.47,1.24-.34,2.7-.63,5.48,4.2-5.01,5.01-2.43,6.51.79,1.51,3.26,4.14,6,6.28,8.97Zm-87.12,118.21c-7.11,5.3-13.55,10.1-20.57,15.34,10.21,4.17,20.98-3.87,20.57-15.34Zm101.52-89.89c-8.02,10.29-7.61,14.81,2.14,24.14.01-1.52-.58-2.84-.96-4.22-.38-1.41-1.28-3.62-.69-4.21,5.56-5.54.87-10.14-.49-15.71Zm6.27,39.06c-2.59,2.01-4.88,3.79-7.18,5.57.27.41.53.81.8,1.22,2.51-.42,5.01-.84,7.52-1.26.15.36.29.73.44,1.09-3,1.47-6,2.94-9.13,4.48,4.61,4.97,9.67,3.01,15.57,1.44-2.99-4.69-5.62-8.8-8.01-12.54Zm-79.02-25.07c-3.18-.38-6.11-.74-9.02-1.08-1.39,9.11-.12,10.37,9.02,9.56v-8.48Zm24.41-150.38l-1.34-1.64c-3.76,2.55-7.52,5.09-11.73,7.95,2.37,2.71,3.91,4.48,6.16,7.06,2.64-5.11,4.78-9.24,6.91-13.37Zm16.99,163.92c-2.14,3.5-3.7,6.04-5.29,8.64h16.26c-4.4-3.46-7.45-5.87-10.98-8.64Zm-14.46,25.31c.05.75.11,1.49.16,2.24,5.05-.37,10.09-.75,15.14-1.12-.06-.78-.11-1.56-.17-2.34-5.31-3.28-10.18-.53-15.13,1.22Zm-25.04,111.9c.52-.42,1.04-.84,1.56-1.27-2.25-3.63-4.51-7.26-6.76-10.89-.8.56-1.61,1.11-2.41,1.67,2.54,3.5,5.07,6.99,7.61,10.49Zm-16.96-143.84c.77-.38,1.53-.76,2.3-1.14l-2.8-6.48c-.98.54-1.96,1.08-2.93,1.62,1.15,2,2.29,4,3.44,5.99Zm72.74,28.91c-.43-.79-.85-1.57-1.28-2.36-1.77,1.3-3.54,2.59-5.31,3.89.48.67.96,1.34,1.44,2,1.72-1.18,3.43-2.35,5.15-3.53Zm-99.18-23.73l2.02-.9c-.37-1.53-.74-3.05-1.11-4.58-1.01.45-2.01.9-3.02,1.35.7,1.38,1.4,2.76,2.11,4.13Zm136.38-.34c.16.28.31.56.47.83.61-.24,1.22-.48,1.83-.72-.09-.26-.19-.51-.28-.77l-2.01.65Zm-37.61,8.79c-.18.04-.36.07-.54.11.23.11.45.22.68.33-.04-.15-.09-.3-.13-.45Zm-15.29-86.56c-.12-.31-.24-.63-.35-.94-.15.1-.43.22-.42.31.04.3.17.6.27.89.16-.08.32-.16.51-.26Z"/>
  <path d="m238.83,325.33c.89,7.74,2.24,15.47,2.39,23.22.04,2.25-3.35,4.56-5.18,6.84-1.15-2.4-3.42-4.88-3.25-7.17.58-7.66,2.03-15.25,3.14-22.87.96,0,1.93-.02,2.89-.02Z"/>
  <path d="m102.29,316.35c.52,9.59,1.37,17.38,1.08,25.13-.08,2.07-3.63,4.02-5.58,6.02-.91-2.5-2.79-5.09-2.55-7.47.68-6.64,2.19-13.21,3.54-19.77.19-.9,1.37-1.59,3.51-3.9Z"/>
  <path d="m159.43,371.14c.19,9.63.51,19.27.4,28.89-.02,1.27-2.28,2.52-3.5,3.78-.8-.87-2.31-1.76-2.28-2.6.33-10.06.9-20.11,1.4-30.17,1.33.03,2.66.06,3.98.1Z"/>
  <path class="cls-1" d="m184.96,131.35c1.89-.2,3.31-.34,5.04-.52-.21,3.09-.47,5.95-.59,8.82-.26,6.19.45,6.63,4.44,4.65,7.27,4.84,13.79,9.18,20.32,13.52.62-.58,1.24-1.15,1.86-1.73-.87-1.79-1.79-3.56-2.61-5.38-3.32-7.38-6.85-14.69-9.71-22.24-.53-1.39,1.18-4.9,2.72-5.62,25.58-12.12,51.29-23.95,76.99-35.82.54-.25,1.15-.33,3.19-.89-2.66,3.45-4.53,5.98-6.5,8.43-18.58,23.03-37.27,45.97-55.68,69.13-4.55,5.73-8.14,12.22-12.28,18.29-5.08,7.44.63,12.98,3.19,19.09.65,1.55,1.2,3.14,1.8,4.72-1.36-.24-2.76-.81-4.06-.63-1.26.17-2.49.98-3.6,1.72-4.47,2.99-10.61,2.58-14.9-.95-13.05-10.72-27.99-16.67-44.88-17.53-6.7-.34-13.41-.36-20.09-.9-1.38-.11-3.33-1.63-3.8-2.94-1.04-2.92-1.31-6.11-2.2-10.77,6.77-1.88,13.4-4.46,20.26-5.43,6.61-.93,13.46-.2,21.56-.2-15.11-6.55-28.51-3.22-42.88,2.18.92-2.87,1.55-4.52,1.97-6.23.34-1.36,1.04-3.74.56-4.04-5.67-3.6-1.25-6.99.16-10.2,11.47-26.09,23.05-52.13,34.62-78.17.58-1.3,1.43-2.48,2.86-4.94,3.45,6.41,6.42,11.94,9.44,17.57,3.98-5.24,1.39-18.25-5.06-26.8,6.8-13.39,13.58-26.77,20.37-40.14.54.1,1.08.19,1.61.29-1.36,37.82-2.73,75.63-4.1,113.67Zm22.16,74.4c-.95-12.7-17.42-30.62-29.15-32.18,13.16,7.57,21.73,19.34,29.15,32.18Z"/>
  <path class="cls-1" d="m112.17,176.38c-1.98.58-3.73,1.09-6.87,2,3.31,3.87,6.1,7.14,8.88,10.41-.56.53-1.13,1.05-1.69,1.58-4.25-4.61-8.5-9.21-12.76-13.82-.35.13-.71.27-1.06.4,2.77,4.98,5.53,9.96,8.6,15.48-8.08-1.28-15.24-3.88-18.55-14.69-.64,9.24.47,10.88,9.48,16.33-5.89,3.27-13.45,1.94-22.21-3.92,2.38,6.21,6.55,9.09,15.43,9.17,5.3.05,8.75,1.58,11.8,6.1,3.61,5.34,8.06,10.21,12.64,14.78,8.45,8.43,19.1,12.73,30.63,15.09,1.79.37,3.55.91,6.04,1.56-3.35,5.51-6.35,10.45-9.5,15.64-1.96-.88-3.52-1.59-5.67-2.56-2.55,7.7-3.4,16.47-14.03,17.92-.76-1.1-1.88-2.73-3.41-4.94-6.96,5.01-13.78,10.14-20.85,14.91-2.57,1.74-5.73,2.6-8.62,3.87-.67-2.65-1.34-5.31-2.18-8.62-.87.4-2.38.82-3.58,1.67-5.23,3.73-10.04,1.66-14.48-1.3-1.01-.67-1.49-3.79-.83-5.04,7.84-14.56,15.86-29.01,24.01-43.4,3.17-5.59,9.72-3.9,14.32,2.48,6.37,8.82,15.46,13.64,26.73,15.62-2.61-5.34-11.49-2.75-11.52-10.47-2.7.08-6.47,1.93-7.2-4.22-.22-1.84-5.34-3.09-8.82-4.93,1.76-1.5,2.64-2.24,3.49-2.96-3.95-1.84-7.83-3.64-11.78-5.48.26,1.03.67,2.63,1.01,3.96-29.35-20.42-58.65-40.81-87.95-61.19.23-.54.46-1.08.68-1.61,1.54-.09,3.1-.41,4.6-.24,24.19,2.75,48.37,5.58,72.55,8.36,4.37.5,8.77,1.36,13.13,1.19,7.49-.29,10.03,3.4,9.53,10.84Z"/>
  <path class="cls-1" d="m235.06,231.21c3.05,5.27,5.75,9.95,8.35,14.46-3.43,7.32-10.25,3.39-15.73,5.18.41,2.02.8,3.9,1.13,5.53-6.52,1.89-12.81,3.91-19.22,5.43-1.56.37-3.57-.85-5.3-1.52-6.75-2.64-13.48-5.36-20.95-8.34v89.27c-6.98-.88-2.77-8.02-6.61-11.95-2.74,10.94-12.64,10.78-21.86,15.05-5.71-13.61-11.36-27.01-16.96-40.43-2.5-5.99-4.72-12.11-7.43-18.01-2.29-4.99-.48-8.58,3.38-11.4,2.69-1.96,6.01-3.04,8.74-4.96,3.46-2.44,6.58-5.36,9.89-8.02,4.5-3.62,9.09-7.14,13.55-10.81,1.93-1.59,3.64-3.46,5.93-5.67-2.8-1.47-4.43-2.33-8.16-4.29,3.94-1.77,6.44-3.66,9.12-3.97,13-1.52,26.04-2.62,39.07-3.84,1.86-.17,4.03-.76,5.55-.06,5.91,2.72,11.41,2.01,17.51-1.65Zm-39.38,19.21h.16s-.28.21-.28.21c1.3-5.09-1.54-7.46-6.29-8.58.78,1.13,1.56,2.25,2.59,3.73-4.34.78-8.19,1.48-12.04,2.17.09.52.18,1.03.27,1.55,3.05-.41,6.11-1.2,9.14-1.11,2.17.07,4.29,1.33,6.46,2.02Zm-30.24,14.05c-.8-.06-1.61-.13-2.41-.19-.59,3.07-1.43,6.12-1.73,9.22-.56,5.8-1.04,11.62-1.02,17.44,0,1.35,2.13,2.7,3.28,4.04,1.35-1.16,3.67-2.16,3.89-3.5,1.51-9.16.43-18.18-2.02-27.01Zm41.94-18.92c.3-.33.6-.66.9-.98-2.43-2.25-4.86-4.5-7.29-6.75-.44.48-.88.96-1.32,1.43l7.71,6.3Zm6.69-4.43l1-1.13c-1.49-1.17-2.97-2.33-4.46-3.5l-1,1.3c1.49,1.11,2.98,2.22,4.46,3.33Z"/>
  <path class="cls-1" d="m163.05,247.33c-11.81,6.57-17.87,17.85-29.46,23.6-7.1,3.52-11.38,12.87-16.62,19.83-.79,1.06.12,3.39.25,5.35-7.09,1.12-13.78-7.44-20.03-1.91-3.44-2-6.24-4.28-9.45-5.38-11.65-4.01-23.65-7.1-35.07-11.67-3.93-1.57-6.55-6.44-9.74-9.82-1.71-1.81-3.35-3.68-5.54-6.08,7.2-8.12,2.73-17.86,1.44-27.56-.31-2.31.93-6.33,2.59-7.1,4.53-2.1,4.34-4.93,2.64-8.92,11.94,3.4,20.05-4.8,29.59-8.33,2.06-.76,4.65-.11,7-.11.05.66.11,1.32.16,1.98-10.3,5.1-20.66,10.11-30.9,15.33-8.29,4.23-8.67,10.46-1.21,16.58-3.96,4.8-4.01,6.92-.29,19.83,2.1.11,4.35.24,6.6.36-1.9,7.91-1.89,7.88,6.88,11.17,3.14,1.18,6.13,2.86,9.34,3.74,3.96,1.09,8.09,1.6,12.74,2.47,1.3.99,3.35,2.94,5.74,4.26,2.17,1.2,4.71,1.76,7.1,2.54,10.58,3.47,14.18,2.15,20.82-6.62,2.61-3.44,5.66-6.8,9.16-9.26,8.11-5.71,8.27-5.48,12.78-12.86,1.97-1,4.57-1.53,5.79-3.11,3.17-4.12,5.58-8.82,8.59-13.09,4.02-5.71,2-20-3.68-24.34-1.5-1.15-3.15-2.11-4.59-3.33-3.56-3.02-7.17-5.03-10.16-2.11-1.92-2.45-3.4-6.17-5.22-6.34-8.15-.78-8.94-7.14-11.05-12.73-1.52-4.02-3.21-7.99-4.77-11.84.42-2.89,1.92-6.54,1.22-9.7-2.17-9.79-4.75-19.55-8.02-29.02-1.89-5.47-.6-9.74,1.97-14.24,2.54-4.45,4.96-8.97,6.9-12.49,2.83-1.07,5.59-1.45,7.41-2.96,2.36-1.97,3.97-4.85,5.92-7.33,3.5-4.46,7.5-4.6,12.73-1.24-1.22,1.55-2.3,3.88-3.09,3.78-7.93-.98-10.49,5.78-14.85,9.91-.91.86-1.65,1.9-2.55,2.78-8.72,8.51-13.34,16.77-7.64,30.25,5.44,12.88,6.65,27.58,9.41,41.55.98,4.97,3.92,7.86,8.22,9.48,7.68,2.9,15.49,5.46,23.18,8.14-1.09,4.51,2.43,14.62,5.53,16.13,1.21.58,3.67.39,4.57-.48,9.45-9.14,21.23-7.8,32.7-7.31,5.2.22,9.68.04,12.29-7.42,1.12,2.36,1.72,3.63,2.79,5.87,4.41-5.03,8.95-8.76,11.55-13.53,3.27-6,2.73-13,1.44-19.71-.92-4.81-1.88-9.62-2.81-14.43.68-.13,1.37-.25,2.05-.38,3.78,10.29,7.55,20.59,11.1,30.25-5,5.29-10.28,10.75-15.42,16.35-4.25,4.63-9.39,6.85-15.67,6.74-4.72-.08-9.48.02-10.86,6.08-8.78-6.52-20.21-5.05-27.2,3.25-2.02,2.41-3.7,5.14-5.92,7.35-2.99,2.99-2.86,5.34,1.63,7.78Z"/>
  <path class="cls-1" d="m236.92,269.63c-3.67-5.68-7.86-4.35-12.52-2.85-6.95,2.23-14.33,3.09-18.8,10.16-3.4,5.37-8.37,10.13-1.89,16.55-3.23,1.29-5.49,2.19-8.82,3.52,2.02-8.3,3.87-15.9,5.52-22.66,4.15-3.15,7.86-7.15,12.44-9.13,5.02-2.17,10.8-2.81,16.33-3.48,4.74-.57,7.57-1.64,4.12-7.28,14.69.88,17.08-11.25,21.2-20.13,4.37-9.43-3.98-16.04-8.5-23.68.64-.98,1.95-2.31,2.5-3.91,4.06-11.88,7.67-23.92,12-35.69,5.21-14.16-.78-25.06-10.27-37.37,3.16.47,5.81.08,7.05,1.21,3.09,2.82,5.54,6.34,8.81,10.26,0,2.11.11,5.98-.04,9.84-.12,3.07-.8,6.13-.8,9.2,0,3.15.52,6.31.8,9.42-1.58,2.72-4.11,5.84-5.31,9.4-2.47,7.34-3.86,15.05-6.4,22.37-2.27,6.55,1.74,10.83,4.66,15.44.6.94,3.68.31,6.17.42-3.32,7.23-1.3,16.16-8.28,22.41-1.57,1.41-.9,5.33-1.25,8.1-7.31-1.34-15.73,6.13-18.72,17.89Z"/>
  <path class="cls-1" d="m31.4,329.45c6.66-11.21,13.32-22.43,19.99-33.64.11-.18.29-.31.41-.48q9.42-12.44,23.75-5.94c1.85.84,3.63,1.83,6.53,3.3-16.88,13.08-32.99,25.58-49.1,38.07-.52-.44-1.05-.88-1.57-1.32Z"/>
  <path class="cls-1" d="m239.71,274.65c.73-8.45,3.76-15.43,11.16-19.05,9.29,13.9,18.54,27.75,27.8,41.59-.17.33-.34.66-.52.98-18.13-8.96-36.27-17.91-54.61-26.98,7.28-8.18,10.35,2.48,16.18,3.45Z"/>
  <path class="cls-1" d="m210.93,372.6c-1.58.76-3.17,1.52-4.03,1.93-7.73-8.19-15.05-16.46-22.97-24.11-3.86-3.73-18.57-1.63-22.44,2.48-1.42,1.5-2.64,3.18-3.91,4.72-5.53-3.53-10.28-6.56-16.19-10.34-.03,0-1.67.55-3.93,1.29.96-5.55.63-10.01-4.27-13.15-.81-.52-.24-4.3.67-6.07,1.21-2.37,3.37-4.24,5.32-6.56,5,2.33,5,3.41-1.27,9.44,3.29,4.18,6.45,8.59,10.07,12.56,1.24,1.36,3.91,2.64,5.52,2.26,7.92-1.88,16.5-2.38,22.01-8.4,6.34,7.18,13.11,13.53,23.18,15.07-4.4,11.64,9.43,11.74,12.23,18.89Z"/>
  <path class="cls-1" d="m208.61,49.08c1.87,0,4.78.86,5.82-.16,3.1-3.07,6.01-6.77,3.53-11.7-4.46-8.86-7.84-10.35-17.76-7.87-2.43.61-4.8,1.44-8.36,2.53.69-2.04,1.07-4.47,1.59-4.5,5.92-.36,11.86-.39,17.8-.43,1.85-.01,3.71.21,6.64.39,1.39,2.57,4.17,6.19,5.28,10.27.69,2.53-.47,6.2-2.01,8.57-2.95,4.54-6.92,8.42-10.19,12.77-3.78,5.03.53,18.4,6.53,20.17,1.26.37,2.97-.78,4.84-1.34-2.18,13.03-.79,26.61-8.77,39.67-.94-7.12-1.64-12.36-2.35-17.72,5.4-2.28,6.84-8.86,3.06-15.99-2.83-5.35-5.81-10.62-8.55-16.02-.72-1.41-1.42-3.27-1.09-4.68,1.13-4.89,2.73-9.67,3.99-13.95Z"/>
  <path class="cls-1" d="m181.76,398.45c-4.95-10.48-9.78-21.01-14.87-31.42-5.86-12-4.05-14.69,9.51-14.42,5.26.11,7.65,1.92,7.55,7.43-.22,12.68-.07,25.37-.07,38.06-.71.11-1.41.23-2.12.34Z"/>
  <path class="cls-1" d="m116.34,194.98c1.1,8.58,6.32,13.32,14.99,14.56-.86,1.85-1.44,2.71-1.65,3.65-.29,1.34-.3,2.74-.43,4.11,1.49.06,3.05.44,4.46.13,10.44-2.3,16.88,2.28,18.49,13.94-15.98-1.61-29.81-6.88-39.31-20.29-3.88-5.47-2.27-12.59,3.45-16.11Z"/>
  <path class="cls-1" d="m181.16,201.35c4.42,1.34,4.85,4.46,1.35,7.48-4.65,4.01-9.9,7.34-14.95,10.87-.6.42-1.81.6-2.4.28-2.48-1.37-4.83-2.98-7.23-4.5,2.09-1.4,4.18-2.79,7.19-4.8.02-4.66,1.13-9.02,8.51-3.8.72.51,4.43-3.19,7.53-5.53Z"/>
  <path class="cls-1" d="m154.21,59.97c-.88-3.32-2.3-6.52-2.4-9.75-.08-2.47.9-5.52,2.49-7.39,3.08-3.62,6.59-7.11,10.54-9.69,3.41-2.23,7.7-3.12,11.59-4.6l1.4,2.36c-1.95,1.74-3.71,3.77-5.88,5.16-3.85,2.47-8.17,4.26-11.88,6.9-4.32,3.07-4.94,6.74-.96,11.09,3.76,4.12,6.89,8.8,9.91,13.66-5.72-1.71-6.02-13.93-14.81-7.74Z"/>
  <path class="cls-1" d="m205.63,149.9c-2.14-2.97-4.77-5.71-6.28-8.97-1.49-3.22-2.31-5.8-6.51-.79.29-2.78.16-4.25.63-5.48,2.07-5.45.87-10.09-2.57-14.69-3.94-5.27-3.15-6.72,2.24-7.45,4.61,12.29,9.14,24.39,13.67,36.48-.4.3-.79.61-1.19.91Z"/>
  <path class="cls-1" d="m226.3,217.28c2.39,3.73,5.01,7.85,8.01,12.54-5.89,1.57-10.96,3.53-15.57-1.44,3.14-1.54,6.13-3.01,9.13-4.48-.15-.36-.29-.73-.44-1.09-2.51.42-5.01.84-7.52,1.26-.27-.41-.53-.81-.8-1.22,2.3-1.78,4.59-3.56,7.18-5.57Z"/>
  <path class="cls-1" d="m147.28,192.22v8.48c-9.14.81-10.41-.45-9.02-9.56,2.9.35,5.84.7,9.02,1.08Z"/>
  <path class="cls-1" d="m188.69,205.76c3.53,2.78,6.58,5.18,10.98,8.64h-16.26c1.59-2.6,3.15-5.15,5.29-8.64Z"/>
  <path class="cls-1" d="m174.23,231.07c4.95-1.75,9.83-4.5,15.13-1.22.06.78.11,1.56.17,2.34-5.05.37-10.09.75-15.14,1.12-.05-.75-.11-1.49-.16-2.24Z"/>
  <path class="cls-1" d="m194.67,300.99c-.08,5.03-1.18,9.33-7.42,10.45-2.53-7.5,4.55-7.42,7.58-10.32l-.16-.13Z"/>
  <path class="cls-1" d="m149.19,342.97c-2.54-3.5-5.07-6.99-7.61-10.49.8-.56,1.61-1.11,2.41-1.67,2.25,3.63,4.51,7.26,6.76,10.89-.52.42-1.04.84-1.56,1.27Z"/>
  <path class="cls-1" d="m132.23,199.13c-1.15-2-2.29-4-3.44-5.99.98-.54,1.96-1.08,2.93-1.62.93,2.16,1.87,4.32,2.8,6.48-.77.38-1.53.76-2.3,1.14Z"/>
  <path class="cls-1" d="m204.97,228.03c-1.72,1.18-3.43,2.35-5.15,3.53-.48-.67-.96-1.34-1.44-2,1.77-1.3,3.54-2.59,5.31-3.89.43.79.85,1.57,1.28,2.36Z"/>
  <path class="cls-1" d="m105.79,204.3c-.7-1.38-1.4-2.76-2.11-4.13,1.01-.45,2.01-.9,3.02-1.35.37,1.53.74,3.05,1.11,4.58l-2.02.9Z"/>
  <path class="cls-1" d="m242.17,203.96l2.01-.65c.09.26.19.51.28.77-.61.24-1.22.48-1.83.72-.16-.28-.31-.56-.47-.83Z"/>
  <path class="cls-1" d="m204.56,212.75c.04.15.09.3.13.45-.23-.11-.45-.22-.68-.33.18-.04.36-.07.54-.11Z"/>
  <path class="cls-1" d="m189.27,126.19c-.18.09-.35.18-.51.26-.1-.3-.23-.59-.27-.89-.01-.08.27-.2.42-.31.12.32.24.63.35.94Z"/>
  <path class="cls-1" d="m194.83,301.12c-.06-.05-.12-.1-.17-.14,0,0,.17.14.17.14Z"/>
  <path d="m207.12,205.75c-7.42-12.84-16-24.61-29.15-32.18,11.73,1.56,28.21,19.47,29.15,32.18Z"/>
  <path d="m165.44,264.47c2.45,8.83,3.52,17.84,2.02,27.01-.22,1.34-2.54,2.34-3.89,3.5-1.15-1.35-3.27-2.69-3.28-4.04-.02-5.81.46-11.64,1.02-17.44.3-3.1,1.13-6.15,1.73-9.22.8.06,1.61.13,2.41.19Z"/>
  <path d="m195.65,250.45c-2.15-.73-4.27-1.99-6.44-2.06-3.03-.1-6.09.7-9.14,1.11-.09-.52-.18-1.03-.27-1.55,3.85-.69,7.7-1.39,12.04-2.17-1.03-1.48-1.81-2.61-2.59-3.73,4.75,1.12,7.6,3.49,6.29,8.58l.1-.18Z"/>
  <path d="m207.38,245.55l-7.71-6.3c.44-.48.88-.96,1.32-1.43,2.43,2.25,4.86,4.5,7.29,6.75-.3.33-.6.66-.9.98Z"/>
  <path d="m214.07,241.12c-1.49-1.11-2.98-2.22-4.46-3.33l1-1.3c1.49,1.17,2.97,2.33,4.46,3.5l-1,1.13Z"/>
  <path d="m195.56,250.63l.28-.22s-.16,0-.17.02c0,.02-.11.2-.11.2Z"/>
</svg>