<?xml version="1.0" encoding="UTF-8"?><svg id="Layer_1" xmlns="http://www.w3.org/2000/svg" viewBox="0 0 299.31 299.9"><defs><style>.cls-1{fill:#fff;}</style></defs><path d="m260.44,174.18c2.81,4.14,5.51,7.95,8.02,11.89,1.7,2.67,3.34,4.32,7.06,3.36,3.8-.98,6.84.74,9.25,4.17,1.57,2.24,4.33,3.65,7.59,6.26-2.61-.51-5.07-.33-6.62-1.42-4.09-2.9-8.04-3.11-12.81-1.85-2.4.63-5.68-.46-8.06-1.71-3.64-1.91-10.58.27-12.27,4.1-1.62,3.67-3.95,7.03-5.65,10.67-.6,1.29-.87,3.36-.24,4.5,4.81,8.62,9.91,17.08,14.86,25.63,1.1,1.9,1.93,3.94,2.89,5.92-.34.31-.68.63-1.02.94-4.87-2.1-9.73-4.2-14.6-6.28-6.15-2.64-12.23-5.45-18.51-7.76-1.46-.54-3.78.31-5.34,1.17-2.01,1.11-3.6,2.95-5.47,4.34-4.58,3.43-9.77,6.24-9.56,13.29.05,1.74-1.83,3.53-2.97,5.55,1.53,1.02,3.18,1.92,4.59,3.11,1.05.89,2.59,2.2,2.53,3.24-.37,6.11,2.41,11.13,4.98,16.28.23.46.14,1.09-.67,2.23-1.71-2.11-3.81-4.03-5.02-6.39-1.6-3.12-3.51-5-7.17-5.48-5.61-.73-6.99-2.25-7.21-7.98-.15-4.01-2.49-5.46-5.78-5.8-8.37-.87-16.23,1.26-23.6,5.01-1.58.81-3.07,2.71-3.64,4.42-3.62,10.84-6.96,21.77-10.41,32.67-.13.4-.46.73-1.06,1.64-.67-1.19-1.32-2.03-1.65-2.98-3.39-9.72-6.77-19.44-10.04-29.2-.95-2.82-2.38-4.2-5.57-5.07-5.44-1.48-10.56-4.14-15.77-6.43-3.25-1.42-6.12-1.94-9.12.85-1.22,1.14-3.43,1.34-5.23,1.74-3.59.79-6.77,1.55-5.6,6.57.97,4.17-1.28,7.08-5.05,8.61-4.57,1.85-7.96,4.63-8.83,10.69-2.25-5.29-.24-8.77,2.32-11.84,2.54-3.05,3.59-5.46.52-9.04-2.3-2.67-2.07-6.05.64-9.07,4.5-5.02,3.9-8.4-1.68-12.37-2.73-1.94-5.35-4.04-8.05-6.09-12.41,4.36-24.8,8.72-38.53,13.55,1.22-3.07,1.77-5.1,2.79-6.87,4.91-8.58,9.99-17.07,14.86-25.68.47-.83.18-2.44-.33-3.39-2.21-4.18-4.63-8.25-7.11-12.59-3.2,1.82-6.83.46-10.26-1.48-3.52-1.98-6.42-3.44-9.37,1.24-1.75,2.77-4.84,4.11-8.82,2.9-2.3-.7-5.16.43-8.29.13,2.34-1.7,4.45-4.16,7.06-4.9,3.5-1,4.7-3.2,5.26-6.11.9-4.71,2.99-7.68,8.37-7.61,3.08.04,7.13-6.95,6.45-10.53-.03-.14-.11-.28-.12-.42-.42-7.87-4.72-11.87-12.33-13.72-9.7-2.36-19.2-5.57-28.78-8.44-.5-.15-.93-.54-2.23-1.32,2.21-.86,3.68-1.56,5.23-2.01,9.94-2.9,19.9-5.7,29.83-8.62,2.61-.77,4.17-1.93,4.25-5.45.07-3.02,2.37-6.03,3.85-8.96,2.82-5.6,2.65-5.98-2.13-9.98-3.09-2.59-5.41-5.86-4.71-10.23.44-2.73-.56-3.75-3.21-3.77-2.69-.02-4.25-1.39-5.81-3.76-1.84-2.8-4.84-4.84-7.36-7.18-.98-.91-2.04-1.73-3.06-2.59.29-.46.58-.92.87-1.38,2.12,1.16,4.48,2.03,6.31,3.54,2.55,2.09,4.98,2.46,8.07,1.4,2.3-.79,4.84-1.11,7.29-1.2,1.05-.04,2.46.76,3.17,1.62,3.24,3.9,9.42,3.61,12.49-.7,3.45-4.86,7.06-9.62,10.29-14.62.74-1.15.83-3.41.2-4.63-3.53-6.84-7.4-13.52-11.11-20.27-.81-1.46-1.45-3.02-2.74-5.71,2.52.77,3.92.95,5.07,1.58,7.41,4.04,14.73,8.25,22.19,12.2,1.11.59,2.87.41,4.17.02,1.18-.35,2.03-1.79,3.21-2.2,8.3-2.82,9.35-10.23,10.56-17.16.38-2.16-1.1-5.53-2.86-6.98-3.13-2.58-4.51-5.4-4.74-9.3-.2-3.34-.97-6.64-1.7-11.36,1.81,1.97,3.68,3.13,4.18,4.72,1.23,3.9,3.05,6.65,7.49,7.18,3.59.43,5.71,2.94,6.72,6.15.96,3.06,2.83,4.29,5.91,4.91,2.58.52,4.92,2.15,7.43,3.12,1.1.43,2.44.8,3.55.59,11.17-2.13,11.25-2.13,15.13-12.88,3.02-8.34,5.77-16.78,8.72-25.15.28-.8,1.38-2.07,1.7-1.96.95.33,2.15,1.08,2.44,1.94,1.53,4.54,2.81,9.17,4.19,13.77.54,1.81,1.16,3.6,1.63,5.42,2.64,10.17,6.63,18.43,19.47,18.48,4.53.01,8.92,1.68,13.63-.11,2.93-1.11,4.67-2.71,4.6-5.55-.13-5.42,2.97-8.23,7.39-10.23,2.26-1.02,4.83-1.67,6.68-3.19,1.97-1.61,3.22-4.08,4.86-6.12.54-.68,1.31-1.19,1.97-1.77.28.93,1.08,2.13.76,2.74-1.48,2.82-3.11,5.6-4.99,8.18-3.44,4.74-3.96,9.65-1.15,14.74,1.79,3.25,2.57,6.36.9,9.91-1.35,2.86-.07,5.05,2.31,6.75.47.34,1.14.48,1.49.9,8.08,9.83,16.78,5.42,25.4,1.06,6.08-3.08,12.05-6.38,19.12-10.14-.52,1.93-.59,3.32-1.22,4.4-5.21,8.92-10.42,17.85-15.86,26.63-1.29,2.07-1.4,3.5.06,5.38,1.34,1.71,2.78,3.49,3.51,5.49,3.07,8.38,10.3,9.84,17.74,10.54,2.01.19,4.25-1.42,6.31-2.36,1.95-.89,3.72-2.57,5.73-2.88,5.19-.81,10.46-1.05,16.18-1.03-1.87,1.02-3.64,2.54-5.63,2.95-4.94,1.03-9.08,2.91-11.81,7.38-2,3.27-4.94,5.19-8.47,7.02-3.4,1.76-5.83,5.75-8.02,9.18-.58.92.81,4.07,2.14,5,2.73,1.91,4.13,3.96,3.51,7.26-.53,2.8.77,4.33,3.45,5.06,10.11,2.79,20.2,5.64,30.29,8.47.68.19,1.37.37,2.02.65.17.07.18.51.3.9-.24.25-.47.72-.8.82-10.63,3.11-21.23,6.3-31.93,9.18-2.58.7-3.4,1.81-3.73,4.33-.61,4.69-1.71,9.32-2.42,13.03Zm-223.07-29.91c-.72-.6-1.63-1.85-2.13-1.7-6.94,1.99-13.82,4.17-21.02,6.4,7.18,3.53,11.37-2.59,17.14-4.43v3.23c-1.65.48-3.3.96-4.95,1.44,1.88.93,3.55,1.11,5.23,1.17,1.68.06,3.36.01,4.27.01.58-2.4,1.02-4.26,1.47-6.13Zm164.4,8.64c5.96,5.12,13.42,1.82,20.37,1.73,5.3-.07,10.58-1.58,15.85-2.59,1.35-.26,2.79-.8,3.85-1.64,5.46-4.31,10.85-8.71,16.19-13.18,2.85-2.38,2.11-7.2-.67-9.61-1.91-1.65-4.15-4.21-4.25-6.45-.43-9.98-3.48-18.68-8.6-27.39-30.41-51.67-98.85-69.8-147.75-38.72-18.1,11.51-32.23,26.35-41.37,45.73-.85,1.81-1.13,4.48-.46,6.32,2.1,5.77.21,10.57-2.79,15.23-1.64,2.55-3.54,4.94-5.38,7.35-3.04,4-3.04,8.8-.34,11.51,2.55,2.54,4.75,5.43,7.1,8.17.64.87,2.14.62,3.51.92,4.88,1.06,10.48,1.17,14.41,3.75,6.49,4.26,6.03,4.95,13.15,1.38.22-.11.55-.01.55-.01.87,1.59,1.68,3.08,2.49,4.55.81-1.61,1.43-2.84,2.05-4.07.21.44.43.89.64,1.33,1.4,0,2.95.39,4.16-.08,2.29-.91,4.38-2.31,7.7-4.14-.78,2.04-.89,3.24-1.34,3.39-3.11.99-4.53,3.78-4.45,6.21.25,7.48,1.19,14.94,2.09,22.38.08.68,2.42,1.83,2.6,1.66,1.96-1.95,6.12-1.67,5.74-6.11-.36-4.14.31-8.37,0-12.52-.2-2.72-1.08-5.47-2.11-8.03-1.2-2.96-.22-5.7,2.33-6.15,3.01-.54,5.93-1.54,8.88-2.36,1.46-.4,2.91-.84,4.73-1.36-2.27,12.31-4.11,23.57-.72,34.99.67,2.27.56,4.85.41,7.27-.57,9.11-2.35,18.25,1.54,27.12.52,1.2.51,2.63.84,4.55-3.67-1.17-8.34-.55-4.82-6.1.44-.7-.01-1.98-.1-2.98-.23-2.71-.55-5.42-.71-8.14-.52-8.95-1.1-17.89-1.41-26.85-.2-5.65.07-11.31.08-16.97,0-2.18-.09-4.36-.14-6.37-4.51-.13-5.93,1.63-5.94,4.81,0,8.72,0,17.44-.07,26.16-.01,1.85.07,3.84-.55,5.53-2.59,7.11-1.15,14.16-.07,21.24.24,1.55.54,3.09.82,4.64-1.44-.43-2.89-.84-4.31-1.31-.37-.13-.67-.48-.43-.3v-15.17c-3.34,2.76-3.99,5.3-3.15,8.41.19.72.33,1.95-.04,2.22-.66.48-1.78.68-2.6.49-1.32-.3-2.55-1-2.78-1.09.31-2.89.56-4.78.71-6.69.21-2.65.34-5.31.51-8.02-3-.1-4.24,1.6-3.79,5.15.31,2.47.06,5.02.06,8.35-2.3-1.98-3.79-3.27-4.82-4.16.55-2.01.97-3.55,1.53-5.57-5.87,1.5-8.94.07-11.66-4.15-1.11-.13-2.18-.49-2.74-1.22-3-3.93-5.72-8.08-8.82-11.93-5.14-6.39-6.4-13.5-4.76-21.34,1.29-6.19-1.78-8.98-8.1-7.4-.84.21-1.58.86-2.42.99-2.82.43-5.23.52-5.23-3.63,0-2.26-1.18-4.51-1.83-6.77-.56-.03-1.12-.06-1.68-.09-.57,1.7-1.91,3.55-1.59,5.06,1.62,7.64,3.63,15.2,5.62,22.76.4,1.52.91,3.36,2.02,4.28,5.31,4.44,5.9,10.74,7.41,16.81,2.17,8.74,4.47,17.58,11.28,24.11,3.31,3.18,7.2,5.74,11.15,8.83-.09-1.25-.16-2.3-.23-3.35,2.22,1.21,3.73,2.72,4.87,4.48,1.76,2.7,2.61,6.47,5,8.19,5.67,4.06,12.03,7.18,17.65,10.42v-5.58c3.12,1.27,5.62,2.29,8.97,3.66-2.08.98-3.13,1.47-4.23,1.99,4.96,4.91,8.93,5.49,14.37,1.74.37,2.08.69,3.86,1.06,5.92,1.55.66,3.67,1.31,5.53,2.41,3.57,2.11,7.07,2.11,10.86.62,4.24-1.67,8.37-1.37,12.73.4,2.87,1.17,5.91,2.8,9.58.98,4.53-2.24,9.34-4.32,14.27-5.31,16.64-3.35,30.23-12.28,42.45-23.23,7.98-7.15,14.92-15.51,21.84-23.74,2.4-2.86,4.35-6.82,4.76-10.47.93-8.42,3.32-16.16,7.41-23.52,5.4-9.72,3.27-20.2,2.59-30.68-1.8,2.21-2.4,4.8-3.64,7.06-.8,1.46-2.36,2.84-3.89,3.42-.73.27-2.2-1.41-3.4-2.26-2.97,3.03-6.12,5.82-6.2,11.06-.14,8.96-3.54,17.14-7.84,24.93-1.85,3.35-3.42,6.92-5.68,9.97-1.42,1.91-2.07,6.66-7.34,2.22,1.12,2.36,1.63,3.44,2.19,4.61-2.57,1.67-4.94,3.21-7.3,4.74l-.75-1.06c1.07-1.53,2.58-2.92,3.1-4.62.69-2.25.95-4.76.74-7.1-.16-1.73-1.88-3.34-1.99-5.05-.2-3.22-1.84-3.72-3.64-3.6v25.42c-1.08.06-2.41.13-4.49.25.79-2.24,1.37-3.82,1.9-5.41,1.75-5.31,2.11-10.56-1.51-15.28-.63-.82-2.38-1.33-3.46-1.14-2.01.35-3.92,1.32-5.5,1.89.99,8.14,1.95,16.06,2.94,24.31-1.04.9-2.43,2.09-4.92,4.23-.22-2.17-.62-3.47-.42-4.68.42-2.55,1.61-5.04,1.68-7.57.24-8.61-.33-17.77-11.02-19.23.77,10.76,1.55,21.64,2.33,32.39-1.94,1.09-3.41,1.91-4.88,2.74-.19-2.1.71-3.58.97-5.16.46-2.83.79-5.73.64-8.58-.08-1.55-1.26-3.05-1.94-4.58.49-.18.98-.36,1.47-.53.38.97.76,1.95,1.13,2.92.17-1.91.11-3.78-.31-5.56-.34-1.43-1.7-2.8-1.59-4.11.44-4.97-.92-8.7-3.97-8.6-3.11.1-6.27.76-9.21,1.77-.57.2-.2,3.08-.33,4.73-.01.14-.46.24-.83.43-1.2-2.03-2.39-4.05-3.24-5.5,1.41-3.5,2.62-6.49,3.91-9.71.65.89,1.51,1.72,1.93,2.73,1.51,3.63,4.08,4.03,7.55,3.08,3.1-.84,4.9-2.59,4.99-5.73.16-5.95.7-11.97-.01-17.83-.53-4.36-2.79-8.5-4.52-13.45,1.7.14,3.4-.2,3.87.4,1.33,1.71,2.95,3.78,3.04,5.77.27,6.4-.14,12.83-.21,19.24-.03,2.44-.21,4.98.4,7.28.43,1.63,2.09,2.94,3.2,4.4,1.16-1.4,3.1-2.68,3.35-4.22,1.39-8.53,1.16-17.02-1.91-25.27-.54-1.47-.71-3.07-.94-4.11,3.04-.59,5.37-1.05,8.5-1.65Zm-.43,1.4c-.48.3-.96.61-1.44.91-.7,3.79-1.84,7.56-2,11.37-.24,5.88.08,11.79.39,17.68.09,1.62,1.02,3.2,1.56,4.8.39-.42.78-.85,1.16-1.27,1.52.07,3.03.14,4.55.22,2.26.12,4,.02,5.01-2.8,2.47-6.86,2.34-13.78,1.36-20.78-.32-2.24-1.12-4.41-1.82-7.06-1.93,1.32-3.08,2.11-4.34,2.98-1.55-2.12-2.99-4.07-4.42-6.03ZM148.16,7.2c-3.82,10.61-7.28,20.22-10.88,30.25,3.72-.35,7.01-.66,10.88-1.02V7.2Zm4.19,276.33c.21,0,.43-.02.64-.03.42-5.24,1-10.48,1.19-15.73.06-1.77-.45-4.75-1.46-5.13-2.52-.93-5.48-.68-8.86-.95,3.18,8.17,5.83,15,8.49,21.84Zm-82.87-58.15c-5.61,6.21-12.46,10.38-15.63,18.02,3.51-1.33,7.02-2.65,10.39-3.92-1.25-1.09-2.44-2.13-3.63-3.17.38-.5.77-1,1.15-1.49,1.59,1.09,3.19,2.19,5.43,3.73.11-.05,1.22-.49,2.75-1.09-2.62-1.36-4.78-2.49-6.95-3.62l.88-1.75c2.82,1.36,5.63,2.72,9.34,4.5.85-.39,2.78-1.28,4.87-2.25-2.95-3.07-5.55-5.77-8.6-8.95Zm160.81,3.87c7.77,3.44,15.26,6.76,22.75,10.07.17-.29.33-.58.5-.86-5.97-4.89-11.95-9.79-18.12-14.85-1.64,1.81-3.19,3.51-5.13,5.64ZM16.12,153c8.5,3.11,15.81,5.78,23.6,8.63-.52-2.2-.67-4.11-1.44-5.73-.56-1.17-1.9-2.73-2.95-2.77-5.95-.27-11.92-.13-19.22-.13Zm216.22-82.82c5.59-4.75,11.25-9.57,16.9-14.38l-.43-.59c-7.31,3.27-14.61,6.55-22.19,9.94,1.86,1.64,3.58,3.15,5.71,5.03Zm51.23,75.63l-.03-.55c-7.15-2.42-14.3-4.84-21.45-7.26-.37.3-.75.6-1.12.91,1.21,2.3,2.21,6.41,3.68,6.59,6.24.74,12.61.31,18.93.31ZM62.56,217.18c-.58,2.14-.86,3.16-1.14,4.18.96.12,1.92.25,3,.39,1.79,5.64-7.08,4.53-5.56,10.24-1.35-1.03-1.99-1.52-2.84-2.16-1.96,3.48-3.9,6.92-5.83,10.36.16.1.31.2.47.3,5.65-5.54,11.29-11.08,17.03-16.72-1.57-2.02-2.97-3.81-5.13-6.58Zm6.81-144.44c1.52-1.56,2.73-2.79,3.93-4.02l-1.16.85c-3.54-3.81-7.07-7.61-10.47-11.27,2.38,4.46,4.87,9.12,7.7,14.44Z"/><path class="cls-1" d="m201.77,152.91c-3.13.61-5.45,1.06-8.5,1.65.23,1.03.39,2.64.94,4.11,3.06,8.25,3.29,16.74,1.91,25.27-.25,1.55-2.19,2.82-3.35,4.22-1.11-1.45-2.76-2.76-3.2-4.4-.61-2.3-.43-4.85-.4-7.28.07-6.42.48-12.84.21-19.24-.08-1.99-1.71-4.06-3.04-5.77-.47-.61-2.17-.27-3.87-.4,1.73,4.95,3.99,9.09,4.52,13.45.71,5.86.17,11.88.01,17.83-.08,3.14-1.89,4.89-4.99,5.73-3.47.95-6.04.55-7.55-3.08-.42-1.01-1.29-1.84-1.93-2.73-1.3,3.22-2.5,6.21-3.91,9.71.85,1.44,2.05,3.47,3.24,5.5.37-.18.82-.29.83-.43.12-1.64-.25-4.53.33-4.73,2.94-1,6.1-1.67,9.21-1.77,3.05-.1,4.41,3.63,3.97,8.6-.11,1.31,1.25,2.68,1.59,4.11.42,1.78.48,3.65.31,5.56-.38-.97-.76-1.95-1.13-2.92-.49.18-.98.36-1.47.53.68,1.52,1.86,3.02,1.94,4.58.15,2.85-.19,5.75-.64,8.58-.25,1.58-1.16,3.06-.97,5.16,1.47-.82,2.94-1.65,4.88-2.74-.77-10.76-1.55-21.63-2.33-32.39,10.69,1.46,11.26,10.62,11.02,19.23-.07,2.53-1.26,5.02-1.68,7.57-.2,1.21.2,2.52.42,4.68,2.49-2.14,3.88-3.33,4.92-4.23-1-8.25-1.96-16.17-2.94-24.31,1.58-.57,3.48-1.54,5.5-1.89,1.09-.19,2.83.32,3.46,1.14,3.63,4.71,3.26,9.96,1.51,15.28-.53,1.6-1.11,3.17-1.9,5.41,2.08-.11,3.41-.19,4.49-.25v-25.42c1.8-.12,3.44.39,3.64,3.6.11,1.72,1.83,3.32,1.99,5.05.21,2.34-.05,4.86-.74,7.1-.52,1.69-2.03,3.09-3.1,4.62l.75,1.06c2.36-1.54,4.73-3.07,7.3-4.74-.55-1.17-1.06-2.24-2.19-4.61,5.27,4.44,5.92-.31,7.34-2.22,2.27-3.05,3.83-6.62,5.68-9.97,4.31-7.79,7.7-15.97,7.84-24.93.08-5.24,3.23-8.03,6.2-11.06,1.21.85,2.68,2.53,3.4,2.26,1.54-.58,3.09-1.96,3.89-3.42,1.23-2.26,1.84-4.85,3.64-7.06.69,10.48,2.81,20.96-2.59,30.68-4.08,7.36-6.48,15.1-7.41,23.52-.41,3.65-2.35,7.62-4.76,10.47-6.92,8.23-13.86,16.59-21.84,23.74-12.21,10.94-25.81,19.87-42.45,23.23-4.93.99-9.74,3.07-14.27,5.31-3.67,1.81-6.71.18-9.58-.98-4.36-1.77-8.48-2.07-12.73-.4-3.78,1.49-7.28,1.49-10.86-.62-1.86-1.1-3.98-1.75-5.53-2.41-.37-2.06-.69-3.84-1.06-5.92-5.44,3.75-9.41,3.17-14.37-1.74,1.1-.52,2.15-1.01,4.23-1.99-3.35-1.37-5.85-2.39-8.97-3.66v5.58c-5.62-3.24-11.98-6.35-17.65-10.42-2.39-1.71-3.25-5.48-5-8.19-1.14-1.75-2.65-3.27-4.87-4.48.07,1.05.14,2.1.23,3.35-3.95-3.09-7.84-5.66-11.15-8.83-6.8-6.53-9.11-15.37-11.28-24.11-1.5-6.07-2.1-12.37-7.41-16.81-1.11-.93-1.62-2.76-2.02-4.28-1.99-7.56-4-15.12-5.62-22.76-.32-1.51,1.02-3.37,1.59-5.06.56.03,1.12.06,1.68.09.65,2.26,1.83,4.51,1.83,6.77,0,4.15,2.41,4.06,5.23,3.63.84-.13,1.58-.78,2.42-.99,6.32-1.58,9.39,1.21,8.1,7.4-1.64,7.84-.38,14.95,4.76,21.34,3.1,3.85,5.82,8,8.82,11.93.56.73,1.62,1.09,2.74,1.22,2.72,4.22,5.79,5.66,11.66,4.15-.55,2.02-.98,3.56-1.53,5.57,1.03.89,2.53,2.18,4.82,4.16,0-3.33.25-5.88-.06-8.35-.45-3.55.79-5.25,3.79-5.15-.17,2.71-.3,5.37-.51,8.02-.15,1.91-.4,3.81-.71,6.69.23.1,1.46.79,2.78,1.09.82.18,1.94-.02,2.6-.49.37-.27.23-1.5.04-2.22-.84-3.11-.19-5.65,3.15-8.41v15.17c-.24-.18.05.17.43.3,1.42.48,2.87.88,4.31,1.31-.27-1.55-.58-3.09-.82-4.64-1.08-7.08-2.52-14.13.07-21.24.62-1.69.53-3.68.55-5.53.07-8.72.07-17.44.07-26.16,0-3.18,1.43-4.94,5.94-4.81.05,2.02.14,4.2.14,6.37-.02,5.66-.28,11.32-.08,16.97.31,8.96.9,17.9,1.41,26.85.16,2.72.48,5.43.71,8.14.08,1.01.54,2.29.1,2.98-3.52,5.55,1.15,4.93,4.82,6.1-.34-1.92-.32-3.36-.84-4.55-3.89-8.87-2.11-18.01-1.54-27.12.15-2.41.26-5-.41-7.27-3.39-11.42-1.56-22.68.72-34.99-1.81.52-3.27.96-4.73,1.36-2.95.82-5.87,1.83-8.88,2.36-2.55.46-3.53,3.2-2.33,6.15,1.04,2.55,1.91,5.31,2.11,8.03.31,4.15-.36,8.38,0,12.52.39,4.44-3.77,4.16-5.74,6.11-.18.18-2.52-.97-2.6-1.66-.9-7.44-1.84-14.9-2.09-22.38-.08-2.42,1.34-5.22,4.45-6.21.45-.14.57-1.35,1.34-3.39-3.31,1.83-5.41,3.23-7.7,4.14-1.21.48-2.76.08-4.16.08-.21-.44-.43-.89-.64-1.33-.62,1.23-1.24,2.46-2.05,4.07-.8-1.47-1.62-2.96-2.49-4.55,0,0-.33-.1-.55.01-7.12,3.57-6.66,2.88-13.15-1.38-3.93-2.58-9.53-2.69-14.41-3.75-1.37-.3-2.87-.05-3.51-.92-2.35-2.74-4.56-5.62-7.1-8.17-2.7-2.7-2.7-7.51.34-11.51,1.84-2.42,3.74-4.81,5.38-7.35,3-4.66,4.89-9.46,2.79-15.23-.67-1.83-.39-4.5.46-6.32,9.14-19.38,23.27-34.23,41.37-45.73,48.9-31.08,117.34-12.95,147.75,38.72,5.12,8.71,8.17,17.41,8.6,27.39.1,2.24,2.33,4.79,4.25,6.45,2.79,2.41,3.52,7.23.67,9.61-5.34,4.47-10.73,8.87-16.19,13.18-1.06.84-2.5,1.38-3.85,1.64-5.26,1.01-10.55,2.52-15.85,2.59-6.95.09-14.41,3.39-20.37-1.73Zm-138.34-23.77c.28.05.56.1.84.15.52-.88,1.04-1.75,1.73-2.92q.69,4.44,5.33,7.63c.37.25.43.91.72,1.32.66.96,1.16,2.36,2.08,2.74,5.38,2.22,5.5,2.31,3.43,8.92,3.57-.23,6.82-.98,9.9-.53,4.88.71,7.37-4.99,12.23-3.98.53.11,1.25-1.49,2.07-1.85,1.47-.65,3.85-.46,4.51-1.48,3.49-5.44,6.72-11.08,9.64-16.85.47-.94-.98-2.88-1.62-4.32-1.01-2.28-2.21-4.49-3.12-6.81-.73-1.86-.89-3.96-1.73-5.76-3.19-6.85-8.78-10.6-16.26-10.64-7.43-.04-15.82-2.16-20.42,6.75-.43.83-1.57,1.28-2.22,2.03-2.72,3.15-6.89,6.01-7.69,9.61-1.13,5.04.26,10.63.58,15.99Zm172.58-11.18c4-9.41.27-18.71-8.11-20.87-8.9-2.29-17.45-.91-25.44,3.19-5.58,2.86-9.64,7.12-8.25,14.29.17.87-.23,2.61-.63,2.69-3.48.72-2.68,3.3-2.52,5.48.29,4.04.43,8.14,1.34,12.05.35,1.5,2.42,2.96,4.04,3.73,1.84.86,4.39.39,6.06,1.43,7.6,4.73,15.45,2.81,23.26,1.24,4.31-.87,4.55-2.13,1.6-5.24-.35-.37-.8-.97-.73-1.38.87-5.11,1.44-10.31,2.88-15.26,1.23-4.19,2.87-4.34,6.51-1.34Zm-83.2,14.3c1.92,2.77,2.88,5.58,4.8,6.61,3.12,1.68,6.93,1.72,9.52-1.5,2.6-3.23.42-6.13-.96-9.23-2.53-5.67-5.2-11.4-6.7-17.38-1.92-7.65-7.88.8-10.38-3.16-.98,1.01-2.6,1.88-2.83,3.04-1.52,7.65-2.97,15.25-6.86,22.24-.88,1.58-.51,5.63.46,6.09,2.18,1.04,5.32,1.2,7.65.45,1.64-.53,2.62-3.14,3.84-4.86.63-.89,1.17-1.85,1.45-2.31Zm93.37-15.95c-.43-.13-.87-.26-1.3-.39-1.48,12.94-6.17,23.68-19.26,28.59,2.71,2.59,7.47,3.05,9.5.72,3.16-3.64,6.45-7.33,8.74-11.51,1.59-2.9,1.79-6.64,2.26-10.06.33-2.41.06-4.9.06-7.36Zm-113.2,83.03q2.11-7.48,7.07-8.84c-2.96-1.72-5.93-2.58-7.44-4.54-1.51-1.97-1.57-5.05-2.44-8.29-1.61,4.24-2.85,7.51-4.2,11.08,5.55,1.29,6.22,5.92,7,10.6Zm12.82-54.69c-.26.42-.52.84-.78,1.26,6.17,1.84,6.63,7.33,7.9,12.27,2.06-4.96,3.85-9.28,5.61-13.52h-12.73Zm9.08,69.22c-1.42,5.83-2.77,11.37-4.22,17.31,2.67-.31,5.82-.67,9.13-1.05-1.77-5.86-3.34-11.03-4.92-16.26ZM59.91,125.2c-3.65,4.96-8.39,9.54-2.84,15.48,2.64,1.89,5.27,3.78,7.91,5.66-.86-2.89-1.92-6.36-3.63-6.72-3.08-.64-3.08-2.41-2.95-4.26.24-3.35.96-6.67,1.51-10.16Zm13.43-39.46l-1.78-.99c-3.51,5.12-7.03,10.25-10.91,15.91,3.05.39,6.13,2.55,5.19-2.73-.1-.54.96-1.24,1.37-1.93,2.06-3.41,4.09-6.84,6.14-10.27Zm84.17,166.03c-.72-3.59-1.38-6.83-2.17-10.74-3.71,3.38-6.6,6.01-4.99,10.74h7.15Zm-3.35-58.35c1.18-1.31,2.27-2.23,2.99-3.39.51-.83,1.05-2.5.67-2.86-1.47-1.41-3.3-2.45-5.07-3.68-.89,1.15-2.12,2.4-2.89,3.89-.37.72-.2,2.2.33,2.78,1.23,1.34,2.83,2.35,3.97,3.25Zm72.64-111.61c.28,2.46,0,4.09.68,4.93,1.01,1.26,2.81,2.87,4.1,2.72,2.62-.3,1.58-2.35.83-3.92-.55-1.16-.95-2.43-1.68-3.46-.83-1.18-1.96-2.16-2.95-3.23-.44,1.34-.88,2.68-.98,2.96Zm-88.95,146.28c-.79-4.36-1.5-8.27-2.21-12.17-.47-.04-.93-.07-1.4-.11-.42,1.64-.74,3.31-1.27,4.91-1.77,5.33-1.49,5.83,4.88,7.38Zm-11.5-79.2c1.19,3.33,2.3,6.43,3.63,10.13,1.69-4.41,3.06-7.99,4.55-11.89-2.73.59-5.35,1.15-8.17,1.76Zm128.29,6.07c-.64-.22-1.29-.43-1.93-.65-1.36,3.05-2.71,6.1-4.5,10.11,2.76-.64,3.96-.91,4.93-1.14.54-3.02,1.02-5.67,1.5-8.33Zm-81.26,3.35c1.07-3.73,1.88-6.56,2.7-9.42-1.96-.68-3.74-1.3-5.77-2.01,1.01,3.75,1.91,7.1,3.08,11.43Zm50.79,65.99c7.2-2.4,9.9-5.69,8.9-10.42-2.86,3.35-5.51,6.45-8.9,10.42Zm-175.7-56.47c2.06,2,4.13,4.01,6.62,6.43,1.52-5.94-2.9-5.98-6.62-6.43Zm159.43,67.93c.32.4.65.81.97,1.21,3.44-.43,5.83-1.89,5.41-6.84-2.36,2.08-4.37,3.85-6.38,5.63Zm-38.92-9.24c.39.62.77,1.23,1.16,1.85,1.47-.74,3.06-1.34,4.31-2.35.28-.23-.63-1.92-.99-2.93-1.5,1.14-2.99,2.29-4.49,3.43Zm17.95,22.41c.24.34.48.68.71,1.01,2.12-1.03,4.27-2,6.32-3.14.36-.2.5-1.2.37-1.73-.08-.33-1.11-.8-1.33-.66-2.07,1.44-4.06,2.99-6.08,4.51Z"/><path class="cls-1" d="m201.33,154.31c1.44,1.96,2.87,3.91,4.42,6.03,1.27-.87,2.42-1.66,4.34-2.98.7,2.65,1.51,4.82,1.82,7.06.98,7,1.11,13.92-1.36,20.78-1.02,2.82-2.75,2.92-5.01,2.8-1.51-.08-3.03-.14-4.55-.22-.39.42-.78.85-1.16,1.27-.54-1.6-1.47-3.17-1.56-4.8-.32-5.89-.64-11.8-.39-17.68.16-3.81,1.3-7.58,2-11.37.48-.3.96-.61,1.44-.91Z"/><path class="cls-1" d="m148.16,7.2v29.23c-3.87.36-7.16.67-10.88,1.02,3.61-10.03,7.06-19.63,10.88-30.25Z"/><path class="cls-1" d="m152.35,283.52c-2.66-6.83-5.31-13.67-8.49-21.84,3.38.27,6.34.02,8.86.95,1.01.37,1.52,3.36,1.46,5.13-.18,5.25-.76,10.49-1.19,15.73-.21,0-.43.02-.64.03Z"/><path class="cls-1" d="m69.49,225.37c3.05,3.18,5.65,5.88,8.6,8.95-2.09.96-4.02,1.85-4.87,2.25-3.71-1.79-6.52-3.14-9.34-4.5l-.88,1.75c2.17,1.13,4.33,2.26,6.95,3.62-1.53.61-2.64,1.05-2.75,1.09-2.24-1.54-3.84-2.63-5.43-3.73-.38.5-.77,1-1.15,1.49,1.19,1.04,2.38,2.08,3.63,3.17-3.37,1.27-6.88,2.6-10.39,3.92,3.17-7.64,10.02-11.81,15.63-18.02Zm4.79,9.91c-1.66-4.61-4.48-5.97-7.66-3.83,2.54,1.27,4.85,2.42,7.66,3.83Z"/><path class="cls-1" d="m230.3,229.24c1.94-2.13,3.48-3.83,5.13-5.64,6.17,5.06,12.15,9.95,18.12,14.85-.17.29-.33.58-.5.86-7.49-3.32-14.98-6.63-22.75-10.07Z"/><path class="cls-1" d="m16.12,153c7.3,0,13.27-.14,19.22.13,1.05.05,2.39,1.61,2.95,2.77.77,1.62.92,3.53,1.44,5.73-7.8-2.85-15.1-5.52-23.6-8.63Z"/><path class="cls-1" d="m232.34,70.18c-2.13-1.88-3.84-3.39-5.71-5.03,7.57-3.39,14.88-6.67,22.19-9.94l.43.59c-5.66,4.82-11.32,9.63-16.9,14.38Z"/><path class="cls-1" d="m283.58,145.8c-6.32,0-12.7.43-18.93-.31-1.47-.17-2.46-4.29-3.68-6.59.37-.3.75-.6,1.12-.91,7.15,2.42,14.3,4.84,21.45,7.26l.03.55Z"/><path class="cls-1" d="m62.56,217.18c2.16,2.77,3.56,4.57,5.13,6.58-5.74,5.63-11.39,11.18-17.03,16.72-.16-.1-.31-.2-.47-.3,1.94-3.44,3.87-6.88,5.83-10.36.85.65,1.49,1.14,2.84,2.16-1.52-5.71,7.35-4.6,5.56-10.24-1.08-.14-2.04-.26-3-.39.28-1.02.56-2.04,1.14-4.18Z"/><path class="cls-1" d="m69.37,72.74c-2.83-5.31-5.32-9.98-7.7-14.44,3.4,3.66,6.93,7.46,10.47,11.27l1.16-.85c-1.2,1.23-2.41,2.46-3.93,4.02Z"/><path class="cls-1" d="m31.35,147.77v-3.23c-5.77,1.84-9.96,7.96-17.14,4.43,7.2-2.23,14.08-4.41,21.02-6.4.5-.14,1.41,1.1,2.13,1.7-2.01,1.17-4.01,2.34-6.02,3.5Z"/><path class="cls-1" d="m31.35,147.77c2.01-1.17,4.01-2.34,6.02-3.5-.45,1.87-.9,3.73-1.47,6.13-.91,0-2.59.05-4.27-.01-1.67-.06-3.34-.24-5.23-1.17,1.65-.48,3.3-.96,4.95-1.44Z"/><path d="m63.43,129.14c-.31-5.36-1.7-10.96-.58-15.99.81-3.6,4.98-6.46,7.69-9.61.65-.76,1.79-1.2,2.22-2.03,4.6-8.91,12.99-6.79,20.42-6.75,7.48.04,13.07,3.78,16.26,10.64.84,1.8,1,3.9,1.73,5.76.91,2.32,2.1,4.53,3.12,6.81.64,1.44,2.09,3.39,1.62,4.32-2.92,5.77-6.15,11.4-9.64,16.85-.66,1.02-3.04.84-4.51,1.48-.83.36-1.55,1.96-2.07,1.85-4.86-1.01-7.35,4.7-12.23,3.98-3.08-.45-6.33.29-9.9.53,2.07-6.61,1.95-6.7-3.43-8.92-.92-.38-1.42-1.78-2.08-2.74-.28-.41-.35-1.07-.72-1.32q-4.64-3.21-5.33-7.63c-.69,1.17-1.21,2.05-1.73,2.92-.28-.05-.56-.1-.84-.15Z"/><path d="m236.01,117.95c-3.64-3-5.28-2.85-6.51,1.34-1.45,4.95-2.01,10.15-2.88,15.26-.07.41.38,1.01.73,1.38,2.95,3.11,2.71,4.37-1.6,5.24-7.81,1.57-15.66,3.49-23.26-1.24-1.66-1.03-4.22-.56-6.06-1.43-1.62-.76-3.7-2.22-4.04-3.73-.9-3.91-1.04-8.01-1.34-12.05-.16-2.18-.96-4.76,2.52-5.48.4-.08.8-1.83.63-2.69-1.39-7.17,2.66-11.43,8.25-14.29,7.99-4.09,16.54-5.47,25.44-3.19,8.38,2.15,12.12,11.46,8.11,20.87Z"/><path d="m152.81,132.25c-.29.46-.82,1.42-1.45,2.31-1.23,1.72-2.2,4.33-3.84,4.86-2.33.76-5.47.59-7.65-.45-.97-.46-1.34-4.51-.46-6.09,3.89-6.99,5.33-14.58,6.86-22.24.23-1.15,1.85-2.03,2.83-3.04,2.5,3.96,8.47-4.49,10.38,3.16,1.5,5.98,4.17,11.71,6.7,17.38,1.38,3.1,3.56,6,.96,9.23-2.58,3.22-6.39,3.18-9.52,1.5-1.92-1.04-2.88-3.84-4.8-6.61Z"/><path d="m246.18,116.29c0,2.45.27,4.95-.06,7.36-.47,3.41-.66,7.15-2.26,10.06-2.29,4.18-5.58,7.87-8.74,11.51-2.02,2.33-6.78,1.87-9.5-.72,13.08-4.91,17.78-15.65,19.26-28.59.43.13.87.26,1.3.39Z"/><path d="m132.98,199.33c-.78-4.68-1.45-9.31-7-10.6,1.35-3.57,2.59-6.84,4.2-11.08.87,3.24.93,6.32,2.44,8.29,1.51,1.97,4.47,2.83,7.44,4.54q-4.96,1.36-7.07,8.84Z"/><path d="m145.81,144.64h12.73c-1.76,4.24-3.55,8.56-5.61,13.52-1.26-4.94-1.73-10.43-7.9-12.27.26-.42.52-.84.78-1.26Z"/><path d="m154.88,213.86c1.58,5.23,3.15,10.4,4.92,16.26-3.31.38-6.46.74-9.13,1.05,1.45-5.94,2.8-11.48,4.22-17.31Z"/><path d="m59.91,125.2c-.54,3.49-1.27,6.81-1.51,10.16-.13,1.85-.13,3.62,2.95,4.26,1.72.36,2.78,3.83,3.63,6.72-2.64-1.89-5.27-3.78-7.91-5.66-5.55-5.94-.81-10.52,2.84-15.48Z"/><path d="m73.33,85.74c-2.04,3.43-4.07,6.86-6.14,10.27-.42.69-1.47,1.38-1.37,1.93.94,5.28-2.14,3.12-5.19,2.73,3.88-5.66,7.4-10.78,10.91-15.91l1.78.99Z"/><path d="m157.5,251.77h-7.15c-1.61-4.73,1.28-7.36,4.99-10.74.79,3.91,1.44,7.15,2.17,10.74Z"/><path d="m154.14,193.42c-1.14-.9-2.74-1.9-3.97-3.25-.53-.58-.7-2.07-.33-2.78.76-1.49,2-2.74,2.89-3.89,1.77,1.23,3.6,2.27,5.07,3.68.38.36-.16,2.03-.67,2.86-.72,1.16-1.8,2.08-2.99,3.39Z"/><path d="m226.79,81.81c.09-.28.53-1.62.98-2.96,1,1.07,2.12,2.05,2.95,3.23.73,1.04,1.12,2.3,1.68,3.46.75,1.57,1.78,3.63-.83,3.92-1.28.14-3.08-1.47-4.1-2.72-.68-.85-.39-2.47-.68-4.93Z"/><path d="m137.83,228.08c-6.37-1.55-6.65-2.04-4.88-7.38.53-1.6.85-3.27,1.27-4.91.47.04.93.07,1.4.11.71,3.91,1.42,7.81,2.21,12.17Z"/><path d="m126.33,148.88c2.82-.61,5.44-1.17,8.17-1.76-1.49,3.9-2.86,7.48-4.55,11.89-1.33-3.71-2.43-6.8-3.63-10.13Z"/><path d="m254.62,154.96c-.48,2.66-.96,5.32-1.5,8.33-.97.23-2.17.5-4.93,1.14,1.79-4.02,3.14-7.07,4.5-10.11.64.22,1.29.43,1.93.65Z"/><path d="m173.36,158.31c-1.17-4.33-2.07-7.67-3.08-11.43,2.04.71,3.81,1.32,5.77,2.01-.82,2.86-1.63,5.69-2.7,9.42Z"/><path d="m224.14,224.3c3.39-3.97,6.04-7.07,8.9-10.42,1,4.73-1.7,8.02-8.9,10.42Z"/><path d="m48.45,167.83c3.72.45,8.14.49,6.62,6.43-2.49-2.42-4.56-4.43-6.62-6.43Z"/><path d="m207.87,235.76c2.01-1.78,4.03-3.55,6.38-5.63.42,4.95-1.97,6.41-5.41,6.84-.32-.4-.65-.81-.97-1.21Z"/><path d="m168.95,226.52c1.5-1.14,2.99-2.29,4.49-3.43.36,1.02,1.27,2.71.99,2.93-1.25,1.01-2.84,1.6-4.31,2.35-.39-.62-.77-1.23-1.16-1.85Z"/><path d="m186.91,248.93c2.01-1.52,4-3.08,6.08-4.51.21-.15,1.24.33,1.33.66.14.53,0,1.53-.37,1.73-2.05,1.15-4.2,2.11-6.32,3.14-.24-.34-.48-.68-.71-1.01Z"/><path d="m74.28,235.28c-2.81-1.4-5.12-2.56-7.66-3.83,3.18-2.15,6-.78,7.66,3.83Z"/></svg>